<svg width="301" height="274" viewBox="0 0 301 274" fill="none" xmlns="http://www.w3.org/2000/svg">
<path fill-rule="evenodd" clip-rule="evenodd" d="M150.695 174.573C110.84 174.573 78.3031 141.847 78.3031 101.582C78.3031 61.3161 110.76 28.5903 150.695 28.5903C190.629 28.5903 223.086 61.3161 223.086 101.582C223.086 116.1 218.949 129.495 211.631 140.965C198.664 161.098 176.23 174.573 150.695 174.573Z" fill="#FECA04"/>
<path fill-rule="evenodd" clip-rule="evenodd" d="M158.093 321.999C192.698 316.786 219.665 275.157 219.665 224.704C219.665 199.679 213.142 177.06 202.244 159.734C197.789 163.745 193.016 167.194 187.686 170.161C176.787 176.177 164.139 179.626 150.695 179.626C130.886 179.626 112.908 172.167 99.1455 159.814C88.3266 177.14 81.7238 199.919 81.7238 224.785C81.7238 275.317 108.612 316.866 143.137 322.08C146.558 331.705 149.422 338.042 150.615 339.806C151.808 337.801 154.752 331.544 158.093 321.999Z" fill="#FECA04"/>
<path fill-rule="evenodd" clip-rule="evenodd" d="M123.011 119.789C120.386 120.912 118.238 123.88 119.67 127.65C121.738 133.104 133.591 140.002 141.308 142.008C160.638 146.82 184.186 133.185 180.526 124.041C179.492 121.394 175.912 119.388 172.651 120.912C169.389 122.196 167.321 127.329 157.775 129.976C148.308 132.703 137.569 129.575 131.125 122.918C129.375 120.993 127.545 117.864 123.011 119.789Z" fill="black"/>
<path d="M117.204 110.084C123.003 110.084 127.704 105.344 127.704 99.4962C127.704 93.6487 123.003 88.9084 117.204 88.9084C111.404 88.9084 106.703 93.6487 106.703 99.4962C106.703 105.344 111.404 110.084 117.204 110.084Z" fill="black"/>
<path d="M184.186 110.084C189.985 110.084 194.686 105.344 194.686 99.4962C194.686 93.6487 189.985 88.9084 184.186 88.9084C178.386 88.9084 173.685 93.6487 173.685 99.4962C173.685 105.344 178.386 110.084 184.186 110.084Z" fill="black"/>
<path fill-rule="evenodd" clip-rule="evenodd" d="M136.137 25.4621H165.173C166.127 22.0933 168.912 17.6015 171.617 15.3556C175.196 12.6285 179.094 11.3451 183.629 10.9441C186.413 10.6232 189.595 9.33986 189.754 6.13145C189.993 3.4043 188.004 0.757362 185.379 0.35631C174.958 -1.56874 163.82 6.05124 158.491 14.6337L154.752 22.4141V22.4943C154.354 23.2162 154.036 23.8579 153.32 24.259C152.206 25.2215 150.376 24.9809 149.024 24.9809H147.433L146.876 23.3767C144.887 16.8796 141.148 11.1045 135.978 6.69292C130.966 2.36157 122.374 -1.00726 115.692 0.2761C113.385 0.677151 111.715 2.76262 111.635 5.24914C111.396 9.01902 114.897 10.6232 118.079 10.9441C126.352 11.7462 134.228 17.1203 136.137 25.4621Z" fill="black"/>
<path fill-rule="evenodd" clip-rule="evenodd" d="M156.184 424.669C156.502 420.979 156.74 416.567 157.138 411.193C157.536 404.375 158.093 395.793 158.888 384.243C159.127 380.794 158.491 377.425 157.218 374.778C155.945 372.051 154.115 370.286 152.047 370.126C149.979 370.206 148.069 372.051 146.876 374.778C145.603 377.425 144.967 380.794 145.206 384.243C145.922 395.793 146.558 404.375 146.956 411.193C147.274 416.567 147.592 420.979 147.91 424.669C148.149 427.957 150.854 429 151.888 429H152.286C153.32 428.92 156.024 427.877 156.184 424.669ZM128.102 382.558C128.42 380.152 128.738 377.184 129.057 373.655C129.614 369.243 130.17 363.548 130.966 355.928C131.284 353.763 130.568 351.437 129.295 349.752C127.943 347.988 125.875 346.784 123.647 346.704C121.34 346.784 119.351 347.988 117.999 349.752C116.647 351.437 116.01 353.763 116.249 355.928C117.044 363.629 117.681 369.243 118.158 373.655C118.556 377.264 118.874 380.152 119.192 382.558C119.431 384.644 122.295 385.285 123.488 385.285H123.886C125 385.285 127.863 384.644 128.102 382.558ZM185.061 382.558C185.379 380.152 185.697 377.184 186.095 373.655C186.493 369.243 187.129 363.548 188.004 355.928C188.243 353.763 187.606 351.437 186.254 349.752C184.902 347.988 182.913 346.784 180.606 346.704C178.299 346.784 176.31 347.988 174.958 349.752C173.685 351.437 172.969 353.763 173.208 355.928C174.003 363.629 174.639 369.243 175.196 373.655C175.514 377.264 175.833 380.152 176.151 382.558C176.39 384.644 179.253 385.285 180.447 385.285H180.844C181.958 385.285 184.822 384.644 185.061 382.558Z" fill="black"/>
<path fill-rule="evenodd" clip-rule="evenodd" d="M266.998 232.485C270.658 231.121 273.84 229.838 276.385 228.715C287.443 223.662 292.136 219.812 291.818 216.122C291.579 212.031 285.852 206.657 276.306 199.759C268.987 194.385 261.748 189.813 254.35 185.722C246.951 181.632 239.394 177.942 231.518 174.413C230.087 173.771 228.257 173.049 226.586 172.327C226.984 172.889 227.541 173.45 228.018 174.012C234.303 181.23 240.428 189.332 244.803 195.508C249.815 202.727 254.588 210.106 258.964 217.566C261.827 222.378 264.532 227.351 266.998 232.485Z" fill="white"/>
<path fill-rule="evenodd" clip-rule="evenodd" d="M218.79 264.649C220.063 264.97 221.495 265.371 222.609 265.692C231.678 268.018 241.86 269.863 248.224 270.665C260.236 272.028 266.123 271.066 267.794 267.858C269.703 264.168 267.475 256.708 262.782 245.72C259.202 237.538 255.304 229.758 251.008 222.298C246.633 214.839 242.019 207.7 237.167 200.802C233.109 194.946 227.064 187.166 221.018 180.108C218.87 177.621 216.563 175.054 214.495 172.889C216.245 177.06 217.836 181.391 219.108 185.883C222.688 197.834 224.518 210.988 224.597 224.704C224.597 238.821 222.529 252.377 218.79 264.649Z" fill="white"/>
<path fill-rule="evenodd" clip-rule="evenodd" d="M34.3909 232.485C30.7316 231.121 27.5496 229.838 25.0039 228.715C13.9463 223.662 9.25282 219.812 9.57103 216.122C9.80968 212.031 15.3783 206.657 25.0835 199.759C32.2431 194.385 39.6413 189.813 47.0396 185.722C54.5174 181.632 61.9952 177.942 69.8707 174.413C71.4617 173.771 73.1323 173.049 74.8029 172.327C74.4051 172.889 73.8483 173.45 73.371 174.012C67.2455 181.23 60.961 189.251 56.5857 195.508C51.574 202.647 46.8009 210.026 42.4256 217.646C39.5618 222.459 36.857 227.351 34.3909 232.485Z" fill="white"/>
<path fill-rule="evenodd" clip-rule="evenodd" d="M82.5989 264.649C81.3261 264.97 79.9737 265.371 78.7804 265.692C69.7116 268.018 59.5291 269.863 53.165 270.665C41.3119 272.028 35.266 271.066 33.5954 267.858C31.6862 264.168 33.9136 256.708 38.6072 245.72C42.187 237.458 46.085 229.758 50.3807 222.298C54.6765 214.919 59.37 207.78 64.2226 200.882C68.2797 194.866 74.3256 187.246 80.3714 180.108C82.5193 177.621 84.8263 175.054 86.8946 172.889C85.1445 176.979 83.5535 181.391 82.2011 185.883C78.7804 197.834 76.7916 210.988 76.7916 224.704C76.7916 238.821 78.86 252.377 82.5989 264.649Z" fill="white"/>
<path d="M93.4974 153.959C87.8493 147.783 83.3148 140.724 79.8941 132.944C75.7575 123.399 73.4505 112.651 73.4505 101.582C73.4505 80.0853 82.1216 60.514 96.043 46.4772C110.124 32.4404 129.375 23.6173 150.695 23.6173H151.251C172.412 23.8579 191.584 32.5206 205.426 46.4772C219.347 60.514 228.018 80.0853 228.018 101.582V102.143C228.018 109.603 226.904 116.741 224.916 123.479C222.847 130.698 219.824 137.436 215.847 143.612C213.938 146.58 212.028 149.307 209.801 151.793C209.165 152.515 208.528 153.237 207.892 153.959L210.596 156.365C219.427 159.333 228.575 162.862 235.257 165.91C243.133 169.52 251.008 173.29 258.645 177.541C266.441 181.872 274.078 186.605 281.636 192.139C293.489 200.722 300.489 208.021 300.966 215.48C301.523 223.421 295.159 230.319 280.124 237.137C277.658 238.26 274.396 239.624 270.737 240.987L271.135 241.95C276.942 255.505 279.249 265.371 275.908 271.948C272.249 279.087 263.418 281.734 247.031 279.809C240.269 279.007 229.609 277.082 220.143 274.595C218.711 274.274 217.04 273.873 215.529 273.472C212.824 280.37 209.562 286.948 205.983 292.723C194.766 310.449 179.253 322.721 161.514 326.411C158.411 334.994 155.547 341.009 150.615 348.79C145.683 340.608 142.739 335.154 139.398 326.411C121.818 322.721 106.146 310.449 95.0089 292.723C91.27 286.867 88.0084 280.451 85.4627 273.472C84.0308 273.873 82.4398 274.274 80.8488 274.595C71.3822 277.082 60.7223 279.007 53.9605 279.809C37.6525 281.734 28.7428 279.087 25.0835 271.948C21.7423 265.371 24.0493 255.505 29.8565 241.95L30.2543 240.987C26.5949 239.624 23.4129 238.26 20.8673 237.137C5.91168 230.319 -0.452405 223.501 0.0249015 215.48C0.581759 208.021 7.5027 200.802 19.3558 192.139C26.9927 186.605 34.6296 181.712 42.3461 177.541C50.0625 173.209 57.8585 169.44 65.7341 165.91C72.4164 162.862 81.5647 159.333 90.3949 156.285L93.4974 153.959ZM150.695 179.466C132.716 179.466 116.09 173.29 103.044 162.862C99.066 169.199 95.8839 176.338 93.2587 184.038H208.21C205.744 176.257 202.403 169.119 198.425 162.862C195.084 165.509 191.584 167.916 187.686 170.001C176.708 176.017 164.139 179.466 150.695 179.466ZM103.123 149.547C115.294 161.9 132.159 169.52 150.695 169.52C162.389 169.52 173.367 166.472 182.992 161.258C190.391 157.167 196.834 151.793 202.244 145.376C204.153 143.05 205.903 140.644 207.414 138.238C210.835 132.864 213.54 126.928 215.29 120.672C217.04 114.576 217.995 108.159 217.995 101.582V101.501C217.995 82.8125 210.517 65.8881 198.187 53.5357C186.015 41.2635 169.15 33.5634 150.615 33.5634C132 33.5634 115.215 41.2635 102.964 53.5357C90.7926 65.8881 83.3148 82.8125 83.3148 101.582C83.3148 111.207 85.3036 120.511 89.0425 128.853C92.3837 136.634 97.1567 143.692 103.123 149.547ZM101.452 283.739H199.937C204.392 275.959 208.051 267.055 210.596 257.35H90.7926C93.3383 267.055 96.9976 275.959 101.452 283.739ZM179.81 307.241H121.499C128.341 312.374 135.978 315.743 143.853 317.026L146.876 317.427L147.831 320.235C148.785 322.962 149.74 325.449 150.615 327.694C151.411 325.529 152.365 322.962 153.32 320.235L154.354 317.427L157.297 317.026C165.412 315.743 172.969 312.454 179.81 307.241ZM213.619 207.62H87.7697C87.0537 213.074 86.656 218.849 86.656 224.624C86.656 227.752 86.7355 230.8 86.9742 233.848H214.415C214.654 230.8 214.733 227.752 214.733 224.624C214.654 218.849 214.335 213.074 213.619 207.62ZM82.5989 264.649C78.86 252.377 76.7917 238.821 76.7917 224.624C76.7917 210.908 78.7804 197.754 82.2011 185.802C83.5535 181.311 85.1445 176.899 86.8946 172.808C84.8263 174.974 82.5193 177.541 80.3715 180.027C74.3256 187.166 68.2797 194.866 64.2226 200.802C59.2904 207.7 54.6765 214.839 50.3807 222.218C46.085 229.677 42.187 237.297 38.6072 245.639C33.9136 256.628 31.7658 264.088 33.5954 267.777C35.266 271.066 41.3119 271.948 53.165 270.585C59.5291 269.863 69.7116 267.938 78.7804 265.612C79.9737 265.371 81.3261 264.97 82.5989 264.649ZM74.8029 172.247C73.1323 172.969 71.4617 173.691 69.8707 174.332C62.0747 177.942 54.5969 181.551 47.0396 185.642C39.6413 189.733 32.2431 194.385 25.0835 199.679C15.3783 206.577 9.80968 211.951 9.57103 216.042C9.25282 219.731 13.9463 223.581 25.0039 228.635C27.47 229.758 30.7316 231.041 34.3909 232.405C36.857 227.271 39.5618 222.298 42.4256 217.486C46.8009 209.785 51.574 202.486 56.5857 195.347C60.961 189.011 67.2455 181.07 73.371 173.851C73.8483 173.45 74.4051 172.808 74.8029 172.247ZM214.495 172.808C216.245 176.979 217.836 181.311 219.108 185.802C222.688 197.754 224.518 210.908 224.597 224.624C224.597 238.821 222.529 252.377 218.79 264.649C220.063 264.97 221.495 265.371 222.609 265.692C231.678 268.018 241.86 269.863 248.224 270.665C260.236 272.028 266.123 271.066 267.794 267.858C269.703 264.168 267.475 256.708 262.782 245.72C259.202 237.538 255.304 229.758 251.008 222.298C246.633 214.839 242.019 207.7 237.167 200.802C233.109 194.946 227.064 187.166 221.018 180.108C218.87 177.541 216.642 174.974 214.495 172.808ZM226.586 172.247C226.984 172.889 227.541 173.37 228.018 173.931C234.303 181.15 240.428 189.251 244.803 195.428C249.815 202.647 254.588 210.026 258.964 217.486C261.748 222.298 264.453 227.351 266.998 232.485C270.658 231.121 273.84 229.838 276.385 228.715C287.443 223.662 292.136 219.812 291.818 216.122C291.579 212.031 285.852 206.657 276.306 199.759C268.987 194.385 261.748 189.813 254.35 185.722C246.951 181.632 239.394 177.942 231.518 174.413C230.007 173.771 228.257 172.969 226.586 172.247Z" fill="black"/>
</svg>
