<svg width="40" height="40" viewBox="0 0 40 40" fill="none" xmlns="http://www.w3.org/2000/svg">
<path d="M6.64816 24.4341L4.11484 21.9007C3.08151 20.8674 3.08151 19.1674 4.11484 18.134L6.64816 15.6007C7.08149 15.1673 7.43149 14.3173 7.43149 13.7173V10.1339C7.43149 8.66728 8.6315 7.46732 10.0982 7.46732H13.6815C14.2815 7.46732 15.1315 7.11737 15.5648 6.68404L18.0982 4.15067C19.1315 3.11734 20.8315 3.11734 21.8648 4.15067L24.3982 6.68404C24.8315 7.11737 25.6815 7.46732 26.2815 7.46732H29.8649C31.3315 7.46732 32.5315 8.66728 32.5315 10.1339V13.7173C32.5315 14.3173 32.8815 15.1673 33.3148 15.6007L35.8482 18.134C36.8815 19.1674 36.8815 20.8674 35.8482 21.9007L33.3148 24.4341C32.8815 24.8674 32.5315 25.7174 32.5315 26.3174V29.9006C32.5315 31.3673 31.3315 32.5674 29.8649 32.5674H26.2815C25.6815 32.5674 24.8315 32.9174 24.3982 33.3507L21.8648 35.8841C20.8315 36.9174 19.1315 36.9174 18.0982 35.8841L15.5648 33.3507C15.1315 32.9174 14.2815 32.5674 13.6815 32.5674H10.0982C8.6315 32.5674 7.43149 31.3673 7.43149 29.9006V26.3174C7.43149 25.7008 7.08149 24.8507 6.64816 24.4341Z" fill="#5FB709"/>
<path d="M15 25L25 15" stroke="white" stroke-width="2" stroke-linecap="round" stroke-linejoin="round"/>
<path d="M24.1574 24.1666H24.1724" stroke="white" stroke-width="3" stroke-linecap="round" stroke-linejoin="round"/>
<path d="M15.8242 15.8333H15.8391" stroke="white" stroke-width="3" stroke-linecap="round" stroke-linejoin="round"/>
</svg>
