<svg width="30" height="30" viewBox="0 0 30 30" fill="none" xmlns="http://www.w3.org/2000/svg">
<path d="M19.5128 6.87502V19.575C19.5128 20.075 19.3628 20.5625 19.0878 20.975L15.6753 26.05C15.1378 26.8625 13.8003 27.4375 12.6628 27.0125C11.4378 26.6 10.6253 25.225 10.8878 24L11.5378 19.9125C11.5878 19.5375 11.4878 19.2 11.2753 18.9375C11.0628 18.7 10.7503 18.55 10.4128 18.55H5.27526C4.28776 18.55 3.43776 18.15 2.93776 17.45C2.46276 16.775 2.37526 15.9 2.68776 15.0125L5.76276 5.65002C6.15026 4.10002 7.83776 2.83752 9.51276 2.83752H14.3878C15.2253 2.83752 16.4003 3.12502 16.9378 3.66252L18.5378 4.90002C19.1503 5.37502 19.5128 6.10002 19.5128 6.87502Z" fill="black"/>
<path d="M23.4867 22.0125H24.7742C26.7117 22.0125 27.4992 21.2625 27.4992 19.4125V6.85C27.4992 5 26.7117 4.25 24.7742 4.25H23.4867C21.5492 4.25 20.7617 5 20.7617 6.85V19.425C20.7617 21.2625 21.5492 22.0125 23.4867 22.0125Z" fill="black"/>
</svg>
