<svg width="54" height="60" viewBox="0 0 54 60" fill="none" xmlns="http://www.w3.org/2000/svg">
<path fill-rule="evenodd" clip-rule="evenodd" d="M27.0156 59.9997C12.1153 60.0648 -0.0040758 48.0203 7.84496e-06 33.1773C-0.0112447 18.3126 12.0841 6.19366 26.9844 6.12858C41.8628 6.07888 53.9887 18.0862 54 32.951C54.0005 38.2879 52.4296 43.298 49.7356 47.5033C44.9396 54.9442 36.5509 59.9327 27.0156 59.9997Z" fill="black"/>
<path fill-rule="evenodd" clip-rule="evenodd" d="M27.0686 56.7878C13.9558 56.8196 3.2695 46.1843 3.24756 33.1035C3.21209 20.0036 13.8357 9.34426 26.9485 9.31247C40.0421 9.29421 50.7341 19.8968 50.7696 32.9968C50.7791 37.7001 49.4053 42.1126 47.0417 45.814C42.8339 52.3633 35.46 56.7451 27.0686 56.7878Z" fill="#FFCA00"/>
<path d="M17.9801 35.2067C19.5402 34.1095 19.9143 31.9562 18.8155 30.3973C17.7168 28.8384 15.5614 28.4642 14.0012 29.5614C12.4411 30.6586 12.067 32.8118 13.1658 34.3707C14.2645 35.9296 16.42 36.3039 17.9801 35.2067Z" fill="black"/>
<path d="M39.9869 35.152C41.547 34.0548 41.9211 31.9016 40.8223 30.3427C39.7236 28.7838 37.5682 28.4095 36.008 29.5067C34.4479 30.604 34.0739 32.7572 35.1726 34.3161C36.2713 35.875 38.4268 36.2493 39.9869 35.152Z" fill="black"/>
<path fill-rule="evenodd" clip-rule="evenodd" d="M22.1298 8.30726L31.6824 8.28077C31.9739 7.18547 32.9073 5.69608 33.7892 4.98976C34.94 4.09423 36.2462 3.66383 37.7034 3.52927C38.6467 3.44029 39.6468 3.02413 39.7304 1.96013C39.7991 1.07893 39.1517 0.241879 38.2674 0.0883365C34.8614 -0.503087 31.2272 1.9666 29.4926 4.76612L28.2926 7.30458L28.2541 7.3316C28.1161 7.54356 28.0108 7.7612 27.7802 7.92338C27.3959 8.19368 26.847 8.14892 26.3906 8.15394L25.8688 8.1476L25.7191 7.64975C25.0584 5.52966 23.7976 3.65927 22.0913 2.21707C20.4583 0.838168 17.5939 -0.249029 15.4327 0.150874C14.6667 0.287499 14.1238 0.985252 14.0913 1.7548C14.0312 2.97454 15.1726 3.49293 16.2185 3.59027C18.9302 3.80837 21.5308 5.54067 22.1298 8.30726Z" fill="black"/>
<path fill-rule="evenodd" clip-rule="evenodd" d="M17.9467 46.3387C17.0755 45.9844 16.3696 45.0285 16.8449 43.7832C17.5354 42.0287 21.4276 39.7688 23.948 39.1289C30.3068 37.5698 38.0116 42.0121 36.8266 44.9984C36.4853 45.8497 35.3282 46.4719 34.2242 46.0401C33.1721 45.6161 32.4914 43.9311 29.3572 43.0767C26.2364 42.203 22.6964 43.1884 20.5741 45.3432C19.9851 45.9342 19.4181 46.9427 17.9467 46.3387Z" fill="black"/>
</svg>
