<svg width="16" height="16" viewBox="0 0 16 16" fill="none" xmlns="http://www.w3.org/2000/svg">
<path d="M9.26692 1.72569L10.5574 4.32807C10.7334 4.69033 11.2027 5.03781 11.5987 5.10434L13.9377 5.49618C15.4336 5.74755 15.7855 6.84173 14.7077 7.92112L12.8892 9.75462C12.5812 10.0651 12.4126 10.664 12.5079 11.0928L13.0285 13.3625C13.4391 15.159 12.4932 15.8539 10.9167 14.915L8.72432 13.6064C8.32836 13.3699 7.67577 13.3699 7.27248 13.6064L5.08005 14.915C3.51089 15.8539 2.55766 15.1516 2.96829 13.3625L3.48889 11.0928C3.58422 10.664 3.41557 10.0651 3.1076 9.75462L1.28914 7.92112C0.21859 6.84173 0.563219 5.74755 2.05905 5.49618L4.39813 5.10434C4.78675 5.03781 5.25603 4.69033 5.43201 4.32807L6.72254 1.72569C7.42646 0.313605 8.57033 0.313605 9.26692 1.72569Z" fill="#FFC700"/>
</svg>
