<svg width="22" height="20" viewBox="0 0 22 20" fill="none" xmlns="http://www.w3.org/2000/svg">
<path d="M0.388585 9.58995L5.45782 11.5654L7.41993 18.154C7.54547 18.576 8.03967 18.732 8.36769 18.452L11.1934 16.0468C11.4896 15.7947 11.9114 15.7822 12.221 16.0168L17.3175 19.8803C17.6684 20.1466 18.1655 19.9459 18.2535 19.5031L21.987 0.751874C22.0831 0.268259 21.628 -0.135187 21.187 0.0429145L0.382645 8.42279C-0.130762 8.62953 -0.126288 9.38849 0.388585 9.58995ZM7.10371 10.5138L17.0109 4.14269C17.189 4.02853 17.3722 4.27991 17.2193 4.42799L9.04294 12.3637C8.75555 12.643 8.57016 13.0168 8.51765 13.4226L8.23913 15.5777C8.20225 15.8654 7.81512 15.894 7.73907 15.6156L6.66789 11.6856C6.54521 11.2373 6.72399 10.7586 7.10371 10.5138Z" fill="black"/>
</svg>
