<svg width="74" height="23" viewBox="0 0 74 23" fill="none" xmlns="http://www.w3.org/2000/svg">
<path fill-rule="evenodd" clip-rule="evenodd" d="M26.993 19.5367C18.3036 23.1493 9.32031 23.3107 0.00195312 19.5367C9.52836 21.5113 18.4851 21.362 26.993 19.5367Z" fill="#1F1B20"/>
<path d="M43.4983 15.7499C43.5375 15.6875 43.6455 15.7145 43.8218 15.8325C43.9986 15.9501 44.0749 16.0284 44.051 16.0681C43.6355 16.7976 43.2114 17.3254 42.78 17.651C42.3485 17.9766 41.8186 18.1396 41.1913 18.1396C40.7831 18.1396 40.4655 18.0592 40.2378 17.8982C40.0102 17.7373 39.7788 17.4646 39.5438 17.0803L38.873 17.8453C38.6766 18.057 38.269 18.1555 37.6491 18.1396C37.1234 18.1237 36.8291 18.0412 36.7666 17.8924C36.7587 17.8532 36.7666 17.814 36.7899 17.7749L38.7433 15.5625C38.6491 15.2957 38.5475 15.0919 38.4374 14.9506C38.3272 14.8092 38.2256 14.7388 38.1314 14.7388C38.0371 14.7388 37.9508 14.7896 37.8725 14.8918C37.8413 14.931 37.7899 15.0072 37.7195 15.121C37.6491 15.2349 37.5369 15.4095 37.3839 15.6446C37.2309 15.8802 37.0879 16.1036 36.9545 16.3153C36.9074 16.3704 36.8349 16.3879 36.737 16.3683C36.639 16.3487 36.5485 16.2979 36.4664 16.2153C36.3838 16.1327 36.3627 16.0602 36.4018 15.9977C36.5273 15.7939 36.7179 15.4683 36.9725 15.021C37.2277 14.5736 37.4236 14.2422 37.5612 14.0268C37.6983 13.8113 37.8767 13.5953 38.0964 13.3793C38.3161 13.1639 38.5395 13.0363 38.7672 12.9966C38.963 12.9574 39.1377 12.9537 39.2907 12.9849C39.4437 13.0162 39.5771 13.0813 39.691 13.1792C39.8048 13.2772 39.8948 13.3677 39.9615 13.4497C40.0282 13.5323 40.1028 13.644 40.1849 13.7854C40.2675 13.9267 40.3241 14.0167 40.3553 14.0559L40.9557 13.2555C41.097 13.1141 41.3421 13.0257 41.691 12.9908C42.0399 12.9553 42.358 12.9712 42.6444 13.0379C42.9308 13.1046 43.0664 13.1967 43.0505 13.3147L41.1441 15.6801C41.1521 15.696 41.1854 15.7881 41.2442 15.9569C41.303 16.1258 41.3559 16.2608 41.403 16.363C41.4501 16.4646 41.5306 16.5668 41.6444 16.669C41.7582 16.7711 41.8816 16.822 42.015 16.822C42.6111 16.822 43.1055 16.4652 43.4978 15.751L43.4983 15.7499ZM46.77 12.9844C47.3587 12.914 47.9627 12.941 48.5826 13.067C49.2025 13.1925 49.6848 13.436 50.03 13.7965C50.0771 13.985 49.9908 14.2047 49.7711 14.4556C49.5514 14.7065 49.3746 14.824 49.2412 14.8087C48.7939 14.4402 48.2015 14.2634 47.464 14.2793C47.103 14.2793 46.7737 14.4127 46.4756 14.6795C46.1776 14.9463 45.9658 15.2878 45.8398 15.7034C45.6043 16.4959 45.6514 16.8765 45.9812 16.8447C46.193 16.8209 46.4185 16.5975 46.6578 16.174C46.897 15.7505 47.0993 15.3148 47.2639 14.8675C47.4836 14.7573 47.8113 14.7536 48.2465 14.8558C48.6822 14.958 48.9543 15.0834 49.0644 15.2327C49.0014 15.4053 48.923 15.6367 48.8288 15.9273C48.6642 16.5393 48.7388 16.8453 49.0527 16.8453C49.3116 16.8373 49.5726 16.7314 49.8352 16.5276C50.0983 16.3238 50.3196 16.0649 50.5001 15.751C50.5472 15.7039 50.616 15.6981 50.706 15.7335C50.796 15.769 50.8807 15.8257 50.9591 15.904C51.0374 15.9824 51.0692 16.0374 51.0533 16.0686C50.2216 17.4811 49.166 18.1714 47.8875 18.1402C47.1263 18.1163 46.8404 17.6536 47.0283 16.7516C46.8949 17.0104 46.7594 17.2301 46.6223 17.4107C46.4846 17.5912 46.2771 17.7579 45.9987 17.9109C45.7202 18.0639 45.4042 18.1407 45.0511 18.1407C43.8425 18.1407 43.2935 17.5128 43.4036 16.2576C43.4586 15.6218 43.6805 15.0554 44.0685 14.5572C44.4565 14.0591 44.8864 13.6885 45.357 13.445C45.8277 13.202 46.2983 13.049 46.7695 12.986L46.77 12.9844ZM57.1736 15.7383C57.2128 15.6991 57.2758 15.697 57.3621 15.7325C57.4484 15.7679 57.5325 15.8246 57.6151 15.9029C57.6977 15.9813 57.731 16.0364 57.7152 16.0676C57.2445 16.8834 56.7914 17.5287 56.3557 18.0036C55.92 18.4784 55.4478 18.8178 54.9374 19.0216C54.8353 19.3906 54.7294 19.6966 54.6198 19.9396C54.5102 20.1825 54.3493 20.4419 54.1375 20.7162C53.9258 20.9909 53.6452 21.1969 53.2958 21.334C52.9469 21.4711 52.5329 21.5362 52.0544 21.5283C51.4816 21.5203 51.0401 21.3991 50.7304 21.1635C50.4201 20.9279 50.2889 20.5674 50.336 20.0809C50.4461 19.0608 51.4382 18.4451 53.3133 18.2333C53.3604 18.084 53.4271 17.8643 53.5134 17.5742C53.5997 17.2841 53.6627 17.0761 53.7018 16.9506C53.4197 17.4212 53.1132 17.7331 52.7839 17.886C52.4546 18.039 52.0814 18.1195 51.6658 18.1274C51.3127 18.1354 51.03 18.0745 50.8182 17.9448C50.6065 17.8151 50.471 17.6367 50.4122 17.4091C50.3534 17.1814 50.328 16.9559 50.336 16.7325C50.3439 16.5086 50.3794 16.2598 50.4419 15.985C50.5673 15.436 50.8225 14.4746 51.2068 13.1014C51.364 12.9447 51.7442 12.8934 52.3487 12.9484C52.9528 13.0035 53.2979 13.1448 53.3842 13.3725C53.1095 14.3296 52.8744 15.1846 52.678 15.9379C52.6388 16.0872 52.6092 16.2126 52.5896 16.3148C52.57 16.4165 52.5584 16.5165 52.5541 16.615C52.5504 16.7129 52.5679 16.7796 52.6071 16.8151C52.6462 16.8506 52.7092 16.8521 52.7955 16.8209C52.9681 16.7505 53.1523 16.544 53.3487 16.2031C53.5446 15.8617 53.6823 15.5461 53.7606 15.2555C53.9411 14.6202 54.1333 13.9018 54.3371 13.1019C54.533 12.9373 54.9194 12.8881 55.4965 12.9548C56.073 13.0215 56.4086 13.1528 56.5029 13.3492C56.307 14.0474 56.0931 14.8341 55.8618 15.7087C55.6304 16.5832 55.4245 17.3466 55.244 17.9977C55.8321 17.6367 56.4759 16.8834 57.1736 15.7383ZM52.8077 19.9279C52.9099 19.677 52.9845 19.4298 53.0311 19.1868C52.4901 19.281 52.164 19.516 52.0544 19.893C51.9919 20.1047 52.0501 20.2418 52.2307 20.3048C52.4191 20.3673 52.5838 20.2969 52.7251 20.0931C52.7563 20.046 52.7839 19.9909 52.8077 19.9284V19.9279ZM60.4452 12.9606C60.8216 12.9765 61.1377 13.0548 61.3929 13.1962C61.648 13.3375 61.8222 13.5022 61.9164 13.6906C62.0107 13.8791 62.0736 14.085 62.1049 14.3084C62.1361 14.5323 62.1128 14.734 62.0345 14.9146C61.8068 15.1814 61.4617 15.3243 60.999 15.3439C60.5358 15.3635 60.2499 15.2555 60.1398 15.0204C60.1477 14.9892 60.1673 14.932 60.1985 14.85C60.2298 14.7674 60.2552 14.6933 60.2748 14.6266C60.2944 14.5599 60.3124 14.4889 60.3277 14.4148C60.3436 14.3402 60.3394 14.2814 60.3161 14.2385C60.2928 14.1951 60.2494 14.1739 60.1869 14.1739C60.0455 14.1739 59.9005 14.3015 59.7512 14.5562C59.6019 14.8113 59.496 15.1782 59.4336 15.6568C59.3632 16.1825 59.4669 16.5647 59.7454 16.804C60.0238 17.0433 60.4066 17.1354 60.8926 17.0803C61.2457 17.0411 61.6104 16.9019 61.9868 16.6626C62.3638 16.4233 62.6618 16.1152 62.881 15.7388C62.9281 15.6679 63.0377 15.6917 63.2103 15.8092C63.3828 15.9268 63.4538 16.0131 63.422 16.0681C62.9196 16.8686 62.3902 17.4117 61.8333 17.6981C61.2764 17.9845 60.6406 18.1317 59.927 18.1396C59.1191 18.147 58.45 17.957 57.9206 17.5689C57.3907 17.1809 57.1381 16.6023 57.1614 15.8331C57.1852 15.0093 57.5045 14.3132 58.1207 13.7441C58.7364 13.1755 59.5114 12.9145 60.4447 12.9616L60.4452 12.9606Z" fill="#1F1B20"/>
<path fill-rule="evenodd" clip-rule="evenodd" d="M13.6948 4.05625C16.6425 5.97212 10.3041 13.508 14.8473 13.4032C16.6118 13.0554 17.5393 10.7509 15.8669 7.38348C22.9925 12.4773 20.3297 17.7929 16.67 19.4229C16.6716 18.0375 16.1793 16.6997 14.7938 15.7299C13.6726 15.9496 14.4206 18.325 13.0241 17.9988C11.4608 15.94 12.1315 19.1429 11.6852 19.7151C0.827422 14.0448 13.0341 8.83931 13.6948 4.05573V4.05625Z" fill="#D70306"/>
<path d="M34.9543 13.7939C34.4058 13.7166 33.9341 13.4789 33.5397 13.0802C33.1453 12.6816 32.8558 12.1776 32.6715 11.5693C32.4873 10.9605 32.3756 10.2729 32.337 9.50525C32.2983 8.73816 32.356 7.95149 32.5106 7.14575H32.4333C32.2279 7.8059 32.0431 8.35223 31.8806 8.78528C31.7176 9.21832 31.5228 9.64501 31.2956 10.0648C31.0685 10.4846 30.8266 10.8171 30.5693 11.0617C30.312 11.3062 30.0076 11.5032 29.6561 11.653C29.3046 11.8028 28.906 11.8865 28.4602 11.9039C27.6116 11.9383 26.9472 11.7388 26.4671 11.3057C25.9869 10.8727 25.7942 10.3306 25.8884 9.67889C25.9313 9.33584 26.0748 9.03833 26.3194 8.78528C26.5639 8.53223 26.853 8.39723 27.1876 8.38029C27.4618 8.36335 27.7233 8.447 27.9721 8.63122C28.2209 8.81545 28.3496 9.02774 28.3581 9.26808C28.1781 9.45655 28.0621 9.65189 28.0108 9.85306C27.9594 10.0542 27.9742 10.2173 28.0558 10.3417C28.1373 10.4661 28.2554 10.528 28.4094 10.528C29.1294 10.528 30.257 8.53911 31.7917 4.56126C31.663 4.71584 31.4275 4.8466 31.0844 4.95354C30.7414 5.06048 30.4285 5.18277 30.1458 5.31988C29.8631 5.45699 29.6916 5.64545 29.6312 5.8858C29.5624 6.16002 29.6572 6.40037 29.9139 6.60577C29.9393 6.68306 29.9139 6.83712 29.8366 7.06899C29.7594 7.30033 29.6349 7.46339 29.4634 7.55762C28.8462 7.72914 28.2935 7.64126 27.8048 7.29398C27.3162 6.9467 27.132 6.46019 27.2516 5.83445C27.3289 5.45699 27.5131 5.15259 27.8048 4.92125C28.0965 4.6899 28.4433 4.5205 28.8462 4.41356C29.249 4.30662 29.6609 4.21186 30.0807 4.13033C30.501 4.04881 30.9145 3.92493 31.3216 3.75764C31.7287 3.59036 32.0394 3.37383 32.2538 3.10808C32.4338 2.94503 32.8605 2.89156 33.5334 2.94714C34.2062 3.00273 34.5302 3.1462 34.5043 3.37807C34.3841 4.23515 34.3179 5.1293 34.3052 6.05944C34.2925 6.98958 34.3333 7.87896 34.4275 8.72757C34.5218 9.57619 34.706 10.3052 34.9807 10.914C35.255 11.5228 35.6023 11.8912 36.0226 12.0199C36.1168 12.2687 36.147 12.5323 36.1126 12.8108C36.0782 13.0892 35.9517 13.3338 35.733 13.544C35.5144 13.7541 35.255 13.8378 34.9548 13.7949L34.9543 13.7939ZM39.5325 6.2712C40.1751 6.1939 40.8353 6.22408 41.5129 6.36119C42.19 6.4983 42.7173 6.76406 43.0947 7.15846C43.1461 7.36386 43.0519 7.6042 42.812 7.87843C42.5722 8.15265 42.379 8.2813 42.2334 8.26436C41.7448 7.86149 41.0973 7.66826 40.2916 7.68573C39.8972 7.68573 39.5372 7.83131 39.2116 8.12301C38.8861 8.4147 38.6542 8.78739 38.5171 9.24161C38.2598 10.1077 38.3112 10.5233 38.6717 10.4889C38.903 10.4629 39.1492 10.2189 39.4112 9.75565C39.6727 9.29296 39.8935 8.81704 40.0735 8.32841C40.3133 8.20824 40.6717 8.20401 41.1471 8.31571C41.623 8.42688 41.9205 8.56452 42.0407 8.72704C41.9719 8.91551 41.8861 9.16856 41.7834 9.48566C41.6034 10.1543 41.685 10.4889 42.028 10.4889C42.3107 10.4804 42.596 10.3645 42.883 10.1416C43.1704 9.9187 43.4124 9.63601 43.6093 9.29296C43.6607 9.24161 43.7358 9.23526 43.8343 9.27338C43.9328 9.31202 44.0249 9.37396 44.1106 9.45972C44.1964 9.54548 44.2308 9.60531 44.2139 9.63972C43.3049 11.1829 42.1519 11.9373 40.7548 11.9029C39.9231 11.8769 39.6103 11.3714 39.8162 10.3856C39.6706 10.6683 39.5224 10.9087 39.3726 11.1056C39.2228 11.3025 38.9957 11.4852 38.6913 11.6519C38.3869 11.8192 38.0417 11.9029 37.6563 11.9029C36.336 11.9029 35.7362 11.2168 35.8558 9.84512C35.9157 9.15056 36.1581 8.53117 36.5822 7.98695C37.0067 7.44274 37.4758 7.03723 37.9903 6.77147C38.5049 6.50572 39.0189 6.33843 39.5335 6.27014L39.5325 6.2712ZM46.7592 11.8907C46.1594 11.9082 45.6813 11.8049 45.3256 11.5821C44.9698 11.3592 44.7877 11.0246 44.7793 10.5789C44.7708 10.2702 44.837 9.97853 44.9788 9.7043C45.1202 9.43008 45.2684 9.22203 45.4225 9.08068C45.5771 8.93933 45.7655 8.78051 45.9884 8.60475C46.2113 8.429 46.3484 8.31518 46.3997 8.26383C46.5797 8.07536 46.657 7.87366 46.6311 7.65926C46.6051 7.44486 46.4723 7.35486 46.2324 7.38927C45.9497 7.43215 45.6411 7.6635 45.3065 8.08383C44.6723 8.97533 44.2477 9.58413 44.0333 9.90971C43.9645 10.0124 43.8343 10.0082 43.6411 9.897C43.4484 9.7853 43.3817 9.67413 43.4415 9.56295C43.8189 8.88586 44.2774 8.21248 44.8174 7.54385C45.5029 6.70371 46.3261 6.27067 47.2865 6.24525C47.8264 6.23678 48.2531 6.33949 48.566 6.55389C48.8789 6.76829 49.044 7.06846 49.061 7.45439C49.0779 7.84878 48.9773 8.17012 48.7587 8.41894C48.5401 8.66722 48.2039 8.93351 47.7491 9.2162C47.4575 9.3962 47.2648 9.59366 47.1705 9.80753C47.0763 10.0219 47.0742 10.1998 47.1642 10.3412C47.2542 10.4825 47.4019 10.5619 47.6078 10.5789C47.9249 10.6048 48.287 10.519 48.6946 10.3216C49.1017 10.1246 49.4638 9.77736 49.7815 9.27973C49.8328 9.20244 49.9509 9.22626 50.1351 9.35014C50.3193 9.47455 50.3988 9.57089 50.3728 9.63972C49.5157 11.1141 48.3108 11.8642 46.7592 11.8902V11.8907ZM58.5 9.29296C58.5599 9.21567 58.6843 9.2395 58.8733 9.3639C59.0617 9.48831 59.1348 9.58466 59.0919 9.65348C58.1491 11.1538 57.1199 11.9039 56.0055 11.9039C55.6111 11.9039 55.311 11.7155 55.105 11.338C54.8996 10.9611 54.8006 10.4338 54.8091 9.75618C54.6635 10.1935 54.4703 10.59 54.2305 10.9457C53.9907 11.3015 53.7805 11.5053 53.6005 11.5566C53.0177 11.8483 52.546 11.8049 52.186 11.428C51.8858 11.1363 51.7275 10.5534 51.7101 9.67889C51.5041 10.339 51.3199 10.9738 51.1568 11.5821C51.114 11.7276 50.8011 11.8303 50.2182 11.8907C49.5237 11.968 49.0949 11.9039 48.9323 11.698C48.881 11.6292 48.8678 11.5524 48.8937 11.4666C49.2108 10.5063 49.5279 9.68789 49.845 9.0108C50.1621 8.33371 50.5994 7.51474 51.1568 6.55442C51.2341 6.41731 51.4655 6.32096 51.8514 6.26484C52.2368 6.20926 52.6016 6.21773 52.9446 6.29078C53.2876 6.36384 53.4417 6.49036 53.4078 6.66983C53.3046 7.20134 53.2363 7.79743 53.2019 8.45758C53.1675 9.11774 53.1892 9.58095 53.2659 9.84618C53.5486 9.42637 54.0378 8.33741 54.7318 6.57983C54.8176 6.35696 55.1691 6.24949 55.7864 6.25849C56.3867 6.26696 56.7721 6.36596 56.9436 6.55442C56.995 6.61424 57.0167 6.67459 57.0077 6.73441C56.7933 7.78049 56.6863 8.65716 56.6863 9.36443C56.6863 10.0717 56.8065 10.4423 57.0463 10.4767C57.2263 10.5026 57.4259 10.4359 57.644 10.2776C57.8626 10.1188 58.1475 9.79112 58.4995 9.29402L58.5 9.29296ZM62.0496 6.27067C62.6923 6.19337 63.3524 6.22355 64.0301 6.36066C64.7072 6.49777 65.2344 6.76353 65.6119 7.15793C65.6632 7.36333 65.569 7.60367 65.3292 7.8779C65.0894 8.15212 64.8961 8.28077 64.7506 8.26383C64.2619 7.86096 63.6145 7.66773 62.8088 7.6852C62.4144 7.6852 62.0544 7.83078 61.7288 8.12248C61.4032 8.41417 61.1713 8.78687 61.0342 9.24108C60.777 10.1072 60.8283 10.5227 61.1888 10.4883C61.4202 10.4624 61.6663 10.2183 61.9284 9.75512C62.1899 9.29243 62.4107 8.81651 62.5906 8.32788C62.8305 8.20771 63.1889 8.20348 63.6643 8.31518C64.1402 8.42635 64.4377 8.56399 64.5579 8.72651C64.4891 8.91498 64.4033 9.16803 64.3006 9.48513C64.1206 10.1538 64.2021 10.4883 64.5452 10.4883C64.8279 10.4799 65.1132 10.3639 65.4001 10.141C65.6876 9.91818 65.9295 9.63548 66.1265 9.29243C66.1778 9.24108 66.253 9.23473 66.3515 9.27285C66.4499 9.31149 66.542 9.37343 66.6278 9.45919C66.7136 9.54495 66.748 9.60478 66.731 9.63919C65.8221 11.1824 64.669 11.9367 63.272 11.9023C62.4403 11.8764 62.1274 11.3708 62.3334 10.3851C62.1878 10.6678 62.0396 10.9081 61.8897 11.1051C61.7399 11.302 61.5128 11.4846 61.2084 11.6514C60.904 11.8187 60.5588 11.9023 60.1734 11.9023C58.8531 11.9023 58.2533 11.2162 58.373 9.84459C58.4328 9.15003 58.6753 8.53064 59.0993 7.98642C59.5239 7.44221 59.9929 7.0367 60.5075 6.77094C61.0221 6.50519 61.5361 6.3379 62.0507 6.26961L62.0496 6.27067ZM73.4045 9.27973C73.4644 9.21091 73.5845 9.23897 73.7645 9.36337C73.9445 9.48778 74.0218 9.57989 73.9959 9.63972C73.1213 11.0971 72.08 11.8515 70.8709 11.9029C70.1334 11.9373 69.6427 11.7827 69.3986 11.4396C69.154 11.0966 69.1006 10.6297 69.2382 10.0378C69.2467 10.0119 69.2552 9.97323 69.2636 9.92188C69.2721 9.87053 69.2806 9.83188 69.2896 9.80647H68.415C68.3377 10.158 68.1879 10.7626 67.965 11.6196C67.9391 11.7398 67.712 11.8298 67.2837 11.8896C66.8549 11.9495 66.4414 11.9495 66.0428 11.8896C65.6442 11.8298 65.4663 11.7181 65.5092 11.5556C65.6807 10.9553 65.9121 10.0706 66.2038 8.90016C66.4954 7.72967 66.7093 6.90488 66.8464 6.42472C67.1381 6.26167 67.5775 6.21455 68.1646 6.28337C68.7517 6.35166 69.0969 6.48878 69.1996 6.69471C69.1567 6.84929 69.0111 7.43639 68.7623 8.45652H69.6236C69.8296 7.66773 70.0138 6.99487 70.1768 6.43795C70.3653 6.2749 70.766 6.22355 71.3791 6.28337C71.9921 6.34319 72.3759 6.49354 72.53 6.73335C72.4527 7.04199 72.3479 7.43639 72.215 7.91654C72.0821 8.3967 71.9773 8.7911 71.9 9.09974C71.8227 9.40837 71.7714 9.64872 71.7459 9.81971C71.7031 10.0595 71.6967 10.231 71.7264 10.3343C71.7565 10.437 71.8354 10.4883 71.9646 10.4883C72.4103 10.4883 72.8905 10.0855 73.4045 9.27973Z" fill="#D70306"/>
<path fill-rule="evenodd" clip-rule="evenodd" d="M4.86551 11.8203C6.21017 9.58465 7.85075 7.57878 10.0461 5.41675C11.2584 6.73917 4.75963 12.1554 6.92114 17.4594C5.6506 16.445 3.72308 15.1729 4.86604 11.8203H4.86551Z" fill="#FA020A"/>
<path fill-rule="evenodd" clip-rule="evenodd" d="M21.6494 9.24374C20.1528 7.10712 17.2903 4.6068 15.0505 2.28912C13.7021 4.42151 22.1465 9.69479 21.3317 15.6033C22.5287 14.5027 23.0231 12.509 21.6494 9.24374Z" fill="#FA020A"/>
<path fill-rule="evenodd" clip-rule="evenodd" d="M15.2527 8.58466C16.5291 10.2454 16.0044 11.7128 15.0028 12.364C13.4242 12.5138 14.4411 9.3131 15.2527 8.58466Z" fill="#FA020A"/>
<path fill-rule="evenodd" clip-rule="evenodd" d="M10.8884 6.04832C11.1245 5.15365 11.512 2.00006 13.1971 0.692993C13.6762 1.34044 12.4289 7.09387 10.351 8.07007C10.3119 7.58356 10.2891 7.80802 10.8884 6.04832Z" fill="#FA020A"/>
</svg>
