<svg width="32" height="32" viewBox="0 0 32 32" fill="none" xmlns="http://www.w3.org/2000/svg">
<path d="M11.1875 24.6533V11.1067C11.1875 10.5733 11.3475 10.0533 11.6408 9.61334L15.2808 4.20001C15.8542 3.33334 17.2808 2.72001 18.4942 3.17334C19.8008 3.61334 20.6675 5.08001 20.3875 6.38667L19.6942 10.7467C19.6408 11.1467 19.7475 11.5067 19.9742 11.7867C20.2008 12.04 20.5342 12.2 20.8942 12.2H26.3742C27.4275 12.2 28.3342 12.6267 28.8675 13.3733C29.3742 14.0933 29.4675 15.0267 29.1342 15.9733L25.8542 25.96C25.4408 27.6133 23.6408 28.96 21.8542 28.96H16.6542C15.7608 28.96 14.5075 28.6533 13.9342 28.08L12.2275 26.76C11.5742 26.2667 11.1875 25.48 11.1875 24.6533Z" fill="#FFCA00"/>
<path d="M6.94602 8.50665H5.57268C3.50602 8.50665 2.66602 9.30665 2.66602 11.28V24.6933C2.66602 26.6667 3.50602 27.4667 5.57268 27.4667H6.94602C9.01268 27.4667 9.85268 26.6667 9.85268 24.6933V11.28C9.85268 9.30665 9.01268 8.50665 6.94602 8.50665Z" fill="#FFCA00"/>
</svg>
