<svg width="30" height="30" viewBox="0 0 30 30" fill="none" xmlns="http://www.w3.org/2000/svg">
<path d="M10.4883 23.1125V10.4125C10.4883 9.91253 10.6383 9.42503 10.9133 9.01253L14.3258 3.93753C14.8633 3.12503 16.2008 2.55003 17.3383 2.97503C18.5633 3.38753 19.3758 4.76253 19.1133 5.98753L18.4633 10.075C18.4133 10.45 18.5133 10.7875 18.7258 11.05C18.9383 11.2875 19.2508 11.4375 19.5883 11.4375H24.7258C25.7133 11.4375 26.5633 11.8375 27.0633 12.5375C27.5383 13.2125 27.6258 14.0875 27.3133 14.975L24.2383 24.3375C23.8508 25.8875 22.1633 27.15 20.4883 27.15H15.6133C14.7758 27.15 13.6008 26.8625 13.0633 26.325L11.4633 25.0875C10.8508 24.625 10.4883 23.8875 10.4883 23.1125Z" fill="white"/>
<path d="M6.5125 7.97498H5.225C3.2875 7.97498 2.5 8.72498 2.5 10.575V23.15C2.5 25 3.2875 25.75 5.225 25.75H6.5125C8.45 25.75 9.2375 25 9.2375 23.15V10.575C9.2375 8.72498 8.45 7.97498 6.5125 7.97498Z" fill="white"/>
</svg>
