<svg width="20" height="20" viewBox="0 0 20 20" fill="none" xmlns="http://www.w3.org/2000/svg">
<path d="M13.3327 1.66602H6.66602C3.33268 1.66602 1.66602 3.33268 1.66602 6.66602V17.4993C1.66602 17.9577 2.04102 18.3327 2.49935 18.3327H13.3327C16.666 18.3327 18.3327 16.666 18.3327 13.3327V6.66602C18.3327 3.33268 16.666 1.66602 13.3327 1.66602ZM11.666 12.7077H5.83268C5.49102 12.7077 5.20768 12.4243 5.20768 12.0827C5.20768 11.741 5.49102 11.4577 5.83268 11.4577H11.666C12.0077 11.4577 12.291 11.741 12.291 12.0827C12.291 12.4243 12.0077 12.7077 11.666 12.7077ZM14.166 8.54102H5.83268C5.49102 8.54102 5.20768 8.25768 5.20768 7.91602C5.20768 7.57435 5.49102 7.29102 5.83268 7.29102H14.166C14.5077 7.29102 14.791 7.57435 14.791 7.91602C14.791 8.25768 14.5077 8.54102 14.166 8.54102Z" fill="black"/>
</svg>
