<svg width="100" height="100" viewBox="0 0 100 100" fill="none" xmlns="http://www.w3.org/2000/svg">
<path d="M59.6648 62.1831C43.869 76.4262 20.8553 73.3345 8.63694 59.0285C-3.34137 45.0056 -2.81275 24.2559 9.92564 11.0081C22.7497 -2.33116 43.4718 -3.72401 57.8818 7.79629C63.048 11.9262 66.8055 17.0972 69.1143 23.3064C71.4202 29.5127 71.9488 35.8878 70.7173 42.3829C69.4857 48.8781 66.5797 54.5754 62.0707 59.6834C64.5481 62.1002 66.9655 64.4769 69.4172 66.8221C69.6086 67.0052 70.0601 67.0624 70.3373 66.9823C72.6089 66.3445 74.5119 66.8478 76.195 68.5467C83.51 75.9342 90.8621 83.2846 98.1971 90.6521C100.517 92.983 100.606 96.335 98.4172 98.4886C96.2627 100.608 92.9709 100.491 90.6707 98.1855C83.2785 90.7722 75.8978 83.3504 68.5057 75.94C66.9512 74.3812 66.4769 72.5708 67.0141 70.4429C67.1027 70.094 67.0769 69.5392 66.8598 69.3189C64.5052 66.9279 62.1022 64.5855 59.6648 62.1831ZM35.6939 67.9089C53.4356 67.9089 67.8342 53.4914 67.8399 35.7162C67.8456 17.9838 53.4013 3.49477 35.6939 3.47189C18.0693 3.44615 3.48503 17.9752 3.47931 35.556C3.4736 53.4885 17.8321 67.9089 35.6939 67.9089Z" fill="black"/>
<path d="M25.6901 35.7247C22.8469 32.8876 20.1181 30.1619 17.3892 27.4363C15.9148 25.9634 15.912 25.2484 17.3807 23.7783C19.6009 21.5532 21.8211 19.3252 24.0499 17.1058C25.1643 15.9961 26.0644 15.9904 27.173 17.0915C29.7304 19.6398 32.2764 22.1967 34.8281 24.7479C35.1024 25.0224 35.391 25.2855 35.8453 25.7231C36.7483 24.7478 37.594 23.7897 38.4913 22.8802C40.4458 20.8953 42.4202 18.9248 44.4004 16.9656C45.3062 16.0704 46.3235 16.0533 47.2236 16.9428C49.6381 19.3309 52.0355 21.7333 54.4214 24.1472C55.4415 25.1768 55.4158 26.0434 54.3557 27.1131C51.8126 29.6757 49.2609 32.2269 46.7007 34.7695C46.4235 35.044 46.0635 35.2328 45.6491 35.5274C46.1035 36.0079 46.3578 36.2882 46.6235 36.557C49.1723 39.111 51.7269 41.6622 54.2729 44.2191C55.4787 45.4318 55.4787 46.2011 54.2757 47.4109C52.0069 49.6904 49.7324 51.9641 47.4579 54.235C46.2006 55.4906 45.4348 55.4992 44.1919 54.2579C41.663 51.7353 39.1342 49.2099 36.6225 46.6673C36.3511 46.3927 36.1882 46.0066 35.9368 45.6119C35.3939 46.1296 35.1081 46.3899 34.8338 46.6645C32.2821 49.2156 29.7361 51.7754 27.1788 54.3208C26.0472 55.4477 25.1786 55.4448 24.0499 54.3237C21.7211 52.0042 19.3952 49.679 17.0806 47.3451C16.0291 46.2869 16.0348 45.3545 17.0921 44.2963C19.9152 41.4677 22.7526 38.6477 25.6901 35.7247Z" fill="#FFCA00"/>
</svg>
