<svg width="74" height="53" viewBox="0 0 74 53" fill="none" xmlns="http://www.w3.org/2000/svg">
<path fill-rule="evenodd" clip-rule="evenodd" d="M42.9333 15.1103V15.8317C42.231 16.0595 41.6995 16.591 41.4717 17.8818C41.4147 18.2045 41.5096 18.4892 41.5856 18.717C41.4147 18.9448 40.7503 19.6092 40.5415 19.7611C40.3137 19.6852 40.029 19.5903 39.7063 19.6472C38.4154 19.875 37.8649 20.3685 37.6561 21.0519H37.0107H36.3463C36.1185 20.3685 35.587 19.875 34.2962 19.6472C33.9735 19.5903 33.6887 19.6852 33.4609 19.7611C33.2521 19.6092 32.5877 18.9448 32.4169 18.717C32.4928 18.4892 32.5877 18.2045 32.5308 17.8818C32.303 16.591 31.7715 16.0595 31.0691 15.8317V15.1103V14.4079C31.7715 14.1802 32.303 13.6297 32.5308 12.3578C32.5877 12.0161 32.4928 11.7314 32.4169 11.5226C32.5877 11.2948 33.2521 10.6304 33.4609 10.4785C33.6887 10.5544 33.9735 10.6494 34.2962 10.5924C35.587 10.3646 36.1185 9.87106 36.3463 9.18768H37.0107H37.6561C37.8649 9.87106 38.4154 10.3646 39.7063 10.5924C40.029 10.6494 40.3137 10.5544 40.5415 10.4785C40.7503 10.6304 41.4147 11.2948 41.5856 11.5226C41.5096 11.7314 41.4147 12.0161 41.4717 12.3578C41.6995 13.6297 42.231 14.1802 42.9333 14.4079V15.1103ZM29.9111 15.1103V15.6798C29.9111 15.6798 27.7661 15.6039 26.3803 18.0147C25.4502 19.6282 23.9126 19.6472 23.9126 19.6472C23.9126 19.6472 24.3302 20.5963 25.4692 20.2357C25.4692 20.2357 25.0136 24.0892 24.8997 24.6207C24.8048 25.0193 24.6909 25.6837 24.1404 25.6647C24.1404 25.0763 23.7417 24.5827 23.2292 24.5827C22.7356 24.5827 22.337 25.0763 22.337 25.6647C22.337 25.6647 22.4129 26.8986 23.8177 26.8986C24.7668 26.8986 25.2983 26.462 25.5451 25.7597C25.5451 25.7597 26.3044 22.5895 26.798 20.4065C27.3674 17.9008 28.7152 16.9327 29.8352 16.8947C30.9552 16.8757 31.3159 17.711 31.2399 18.0337C31.202 18.2045 30.9172 17.9387 30.9172 17.9387C30.4047 17.9387 29.9871 18.3374 29.9871 18.812C29.9871 19.2865 30.4047 19.6852 30.9172 19.6852C30.9172 19.6852 31.4867 19.7611 31.9423 19.4004L32.227 19.7041C31.6006 20.1787 30.8982 20.6343 30.5186 20.6343C30.5186 20.6343 30.8033 19.3625 29.2467 19.2675C28.0129 19.1726 28.3356 18.4893 28.3356 18.4893C28.3356 18.4893 27.0827 19.1347 27.9939 20.5584C27.9939 20.5584 27.5573 20.5963 27.2725 20.995C27.2725 20.995 27.804 21.9251 28.6962 21.7163C29.3416 21.5645 29.4555 21.4695 29.6264 21.7543C29.6264 21.7543 29.7783 22.1529 28.943 22.1909C28.1267 22.2289 27.3105 22.3428 26.8929 22.8553C26.8929 22.8553 27.0447 23.14 27.4244 23.2539C27.4244 23.2539 26.779 24.0512 26.9498 25.2281C28.1267 25.399 28.924 24.7726 28.924 24.7726C29.0379 25.1522 29.3416 25.3041 29.3416 25.3041C29.8352 24.8675 29.9491 24.0702 29.9871 23.2349C30.044 22.3997 30.4237 22.5516 30.4237 22.5516C30.7084 22.7224 30.6135 22.8553 30.4616 23.4817C30.2528 24.3739 31.183 24.9054 31.183 24.9054C31.5816 24.6207 31.6196 24.1841 31.6196 24.1841C33.0433 25.0953 33.6887 23.8424 33.6887 23.8424C33.6887 23.8424 33.0053 24.1651 32.9294 22.9312C32.8155 21.3746 31.5437 21.6594 31.5437 21.6594C31.5437 21.2797 31.9992 20.5774 32.4738 19.9699L32.7775 20.2357C32.4169 20.6913 32.4928 21.2607 32.4928 21.2607C32.4928 21.7733 32.8914 22.1909 33.366 22.1909C33.8406 22.1909 34.2392 21.7733 34.2392 21.2607C34.2392 21.2607 33.9924 20.976 34.1633 20.938C34.467 20.8621 35.3022 21.2228 35.2833 22.3428C35.2643 23.4627 34.2772 24.8105 31.7714 25.38C30.2718 25.7217 27.0257 26.1773 25.8488 27.0505C25.8488 27.0505 25.2793 27.4871 25.2793 28.3793C25.2793 29.784 26.5132 29.841 26.5132 29.841C27.1017 29.841 27.5952 29.4423 27.5952 28.9488C27.5952 28.4552 27.1017 28.0376 26.5132 28.0376C26.4942 27.4871 27.1776 27.3732 27.5573 27.2973C28.0888 27.1644 31.9423 26.7088 31.9423 26.7088C31.5816 27.8478 32.5497 28.2654 32.5497 28.2654C32.5497 28.2654 32.5687 26.7468 34.1823 25.7976C36.5931 24.4119 36.5171 22.2858 36.5171 22.2858H37.0107H37.4853C37.4853 22.2858 37.4093 24.4119 39.8202 25.7976C41.4337 26.7468 41.4527 28.2654 41.4527 28.2654C41.4527 28.2654 42.4208 27.8478 42.0601 26.7088C42.0601 26.7088 45.9136 27.1644 46.4452 27.2973C46.8248 27.3732 47.5082 27.4871 47.4892 28.0376C46.9007 28.0376 46.4072 28.4552 46.4072 28.9488C46.4072 29.4423 46.9007 29.841 47.4892 29.841C47.4892 29.841 48.7231 29.784 48.7231 28.3793C48.7231 27.4871 48.1536 27.0505 48.1536 27.0505C46.9767 26.1773 43.7306 25.7217 42.231 25.38C39.7252 24.8105 38.7381 23.4627 38.7192 22.3428C38.7002 21.2228 39.5354 20.8621 39.8391 20.938C40.01 20.976 39.7632 21.2607 39.7632 21.2607C39.7632 21.7733 40.1618 22.1909 40.6364 22.1909C41.111 22.1909 41.5096 21.7733 41.5096 21.2607C41.5096 21.2607 41.5856 20.6913 41.2249 20.2357L41.5286 19.9699C42.0032 20.5774 42.4588 21.2797 42.4588 21.6594C42.4588 21.6594 41.1869 21.3746 41.073 22.9312C40.9971 24.1651 40.3137 23.8424 40.3137 23.8424C40.3137 23.8424 40.9591 25.0953 42.3828 24.1841C42.3828 24.1841 42.4208 24.6207 42.8194 24.9054C42.8194 24.9054 43.7496 24.3739 43.5408 23.4817C43.3889 22.8553 43.294 22.7224 43.5787 22.5516C43.5787 22.5516 43.9584 22.3997 44.0154 23.2349C44.0533 24.0702 44.1672 24.8675 44.6608 25.3041C44.6608 25.3041 44.9645 25.1522 45.0784 24.7726C45.0784 24.7726 45.8757 25.399 47.0526 25.2281C47.2234 24.0512 46.578 23.2539 46.578 23.2539C46.9577 23.14 47.1096 22.8553 47.1096 22.8553C46.6919 22.3428 45.8757 22.2289 45.0594 22.1909C44.2242 22.1529 44.376 21.7543 44.376 21.7543C44.5469 21.4695 44.6608 21.5645 45.3062 21.7163C46.1984 21.9251 46.7299 20.995 46.7299 20.995C46.4452 20.5963 46.0085 20.5584 46.0085 20.5584C46.9197 19.1347 45.6669 18.4893 45.6669 18.4893C45.6669 18.4893 45.9896 19.1726 44.7557 19.2675C43.1991 19.3625 43.4838 20.6343 43.4838 20.6343C43.1042 20.6343 42.4018 20.1787 41.7754 19.7041L42.0601 19.4004C42.5157 19.7611 43.0852 19.6852 43.0852 19.6852C43.5977 19.6852 44.0154 19.2865 44.0154 18.812C44.0154 18.3374 43.5977 17.9387 43.0852 17.9387C43.0852 17.9387 42.8005 18.2045 42.7625 18.0337C42.6866 17.711 43.0472 16.8757 44.1672 16.8947C45.2872 16.9327 46.635 17.9008 47.2045 20.4065C47.698 22.5895 48.4573 25.7597 48.4573 25.7597C48.7041 26.462 49.2356 26.8986 50.1848 26.8986C51.5895 26.8986 51.6654 25.6647 51.6654 25.6647C51.6654 25.0763 51.2668 24.5827 50.7732 24.5827C50.2607 24.5827 49.8621 25.0763 49.8621 25.6647C49.3116 25.6837 49.1977 25.0193 49.1027 24.6207C48.9889 24.0892 48.5333 20.2357 48.5333 20.2357C49.6722 20.5963 50.0899 19.6472 50.0899 19.6472C50.0899 19.6472 48.5522 19.6282 47.6221 18.0147C46.2363 15.6039 44.0913 15.6798 44.0913 15.6798V15.1103V14.5598C44.0913 14.5598 46.2363 14.6357 47.6221 12.2249C48.5522 10.6114 50.0899 10.5924 50.0899 10.5924C50.0899 10.5924 49.6722 9.64326 48.5333 10.0039C48.5333 10.0039 48.9889 6.13145 49.1027 5.59993C49.1977 5.22027 49.3116 4.53689 49.8621 4.55587C49.8621 5.16332 50.2607 5.63789 50.7732 5.63789C51.2668 5.63789 51.6654 5.16332 51.6654 4.55587C51.6654 4.55587 51.5895 3.34097 50.1848 3.34097C49.2356 3.34097 48.7041 3.75859 48.4573 4.47994C48.4573 4.47994 47.698 7.65007 47.2045 9.83309C46.635 12.3198 45.2872 13.3069 44.1672 13.3259C43.0472 13.3449 42.6866 12.5286 42.7625 12.2059C42.8005 12.0351 43.0852 12.3009 43.0852 12.3009C43.5977 12.3009 44.0154 11.9022 44.0154 11.4276C44.0154 10.9341 43.5977 10.5544 43.0852 10.5544C43.0852 10.5544 42.5157 10.4785 42.0601 10.8202L41.7754 10.5165C42.4018 10.0419 43.1042 9.58632 43.4838 9.58632C43.4838 9.58632 43.1991 10.8582 44.7557 10.9721C45.9896 11.067 45.6669 11.7314 45.6669 11.7314C45.6669 11.7314 46.9197 11.1049 46.0085 9.68123C46.0085 9.68123 46.4452 9.64326 46.7299 9.22564C46.7299 9.22564 46.1984 8.29548 45.3062 8.5043C44.6608 8.65616 44.5469 8.77005 44.376 8.46633C44.376 8.46633 44.2242 8.08667 45.0594 8.04871C45.8757 8.01074 46.6919 7.89685 47.1096 7.38431C47.1096 7.38431 46.9577 7.08059 46.578 6.98567C46.578 6.98567 47.2234 6.16941 47.0526 5.01146C45.8757 4.84061 45.0784 5.46705 45.0784 5.46705C44.9645 5.08739 44.6608 4.93553 44.6608 4.93553C44.1672 5.37213 44.0533 6.16941 44.0154 7.00465C43.9584 7.82091 43.5787 7.66905 43.5787 7.66905C43.294 7.51719 43.3889 7.38431 43.5408 6.73889C43.7496 5.8467 42.8194 5.31518 42.8194 5.31518C42.4208 5.61891 42.3828 6.03653 42.3828 6.03653C40.9591 5.12536 40.3137 6.37822 40.3137 6.37822C40.3137 6.37822 40.9971 6.05551 41.073 7.2894C41.1869 8.86497 42.4588 8.56124 42.4588 8.56124C42.4588 8.95988 42.0032 9.66225 41.5286 10.2697L41.2249 10.0039C41.5856 9.52937 41.5096 8.97887 41.5096 8.97887C41.5096 8.46633 41.111 8.04871 40.6364 8.04871C40.1618 8.04871 39.7632 8.46633 39.7632 8.97887C39.7632 8.97887 40.01 9.24463 39.8391 9.30157C39.5354 9.3775 38.7002 9.01683 38.7192 7.89685C38.7381 6.75788 39.7252 5.4101 42.231 4.8596C43.7306 4.51791 46.9767 4.04334 48.1536 3.17013C48.1536 3.17013 48.7231 2.75251 48.7231 1.86031C48.7231 0.455587 47.4892 0.379656 47.4892 0.379656C46.9007 0.379656 46.4072 0.797278 46.4072 1.29083C46.4072 1.78438 46.9007 2.18302 47.4892 2.18302C47.5082 2.73352 46.8248 2.8664 46.4452 2.94233C45.9136 3.05623 42.0601 3.51182 42.0601 3.51182C42.4208 2.39183 41.4527 1.97421 41.4527 1.97421C41.4527 1.97421 41.4337 3.49284 39.8202 4.42299C37.4093 5.82772 37.4853 7.95379 37.4853 7.95379H37.0107H36.5171C36.5171 7.95379 36.5931 5.82772 34.1823 4.42299C32.5687 3.49284 32.5497 1.97421 32.5497 1.97421C32.5497 1.97421 31.5816 2.39183 31.9423 3.51182C31.9423 3.51182 28.0888 3.05623 27.5573 2.94233C27.1776 2.8664 26.4942 2.73352 26.5132 2.18302C27.1017 2.18302 27.5952 1.78438 27.5952 1.29083C27.5952 0.797278 27.1017 0.379656 26.5132 0.379656C26.5132 0.379656 25.2793 0.455587 25.2793 1.86031C25.2793 2.75251 25.8488 3.17013 25.8488 3.17013C27.0257 4.04334 30.2718 4.51791 31.7714 4.8596C34.2772 5.4101 35.2643 6.75788 35.2833 7.89685C35.3022 9.01683 34.467 9.3775 34.1633 9.30157C33.9924 9.24463 34.2392 8.97887 34.2392 8.97887C34.2392 8.46633 33.8406 8.04871 33.366 8.04871C32.8914 8.04871 32.4928 8.46633 32.4928 8.97887C32.4928 8.97887 32.4169 9.52937 32.7775 10.0039L32.4738 10.2697C31.9992 9.66225 31.5437 8.95988 31.5437 8.56124C31.5437 8.56124 32.8155 8.86497 32.9294 7.2894C33.0053 6.05551 33.6887 6.37822 33.6887 6.37822C33.6887 6.37822 33.0433 5.12536 31.6196 6.03653C31.6196 6.03653 31.5816 5.61891 31.183 5.31518C31.183 5.31518 30.2528 5.8467 30.4616 6.73889C30.6135 7.38431 30.7084 7.51719 30.4237 7.66905C30.4237 7.66905 30.044 7.82091 29.9871 7.00465C29.9491 6.16941 29.8352 5.37213 29.3416 4.93553C29.3416 4.93553 29.0379 5.08739 28.924 5.46705C28.924 5.46705 28.1267 4.84061 26.9498 5.01146C26.779 6.16941 27.4244 6.98567 27.4244 6.98567C27.0447 7.08059 26.8929 7.38431 26.8929 7.38431C27.3105 7.89685 28.1267 8.01074 28.943 8.04871C29.7783 8.08667 29.6264 8.46633 29.6264 8.46633C29.4555 8.77005 29.3416 8.65616 28.6962 8.5043C27.804 8.29548 27.2725 9.22564 27.2725 9.22564C27.5573 9.64326 27.9939 9.68123 27.9939 9.68123C27.0827 11.1049 28.3356 11.7314 28.3356 11.7314C28.3356 11.7314 28.0129 11.067 29.2467 10.9721C30.8033 10.8582 30.5186 9.58632 30.5186 9.58632C30.8982 9.58632 31.6006 10.0419 32.227 10.5165L31.9423 10.8202C31.4867 10.4785 30.9172 10.5544 30.9172 10.5544C30.4047 10.5544 29.9871 10.9341 29.9871 11.4276C29.9871 11.9022 30.4047 12.3009 30.9172 12.3009C30.9172 12.3009 31.202 12.0351 31.2399 12.2059C31.3159 12.5286 30.9552 13.3449 29.8352 13.3259C28.7152 13.3069 27.3674 12.3198 26.798 9.83309C26.3044 7.65007 25.5451 4.47994 25.5451 4.47994C25.2983 3.75859 24.7668 3.34097 23.8177 3.34097C22.4129 3.34097 22.337 4.55587 22.337 4.55587C22.337 5.16332 22.7356 5.63789 23.2292 5.63789C23.7417 5.63789 24.1404 5.16332 24.1404 4.55587C24.6909 4.53689 24.8048 5.22027 24.8997 5.59993C25.0136 6.13145 25.4692 10.0039 25.4692 10.0039C24.3302 9.64326 23.9126 10.5924 23.9126 10.5924C23.9126 10.5924 25.4502 10.6114 26.3803 12.2249C27.7661 14.6357 29.9111 14.5598 29.9111 14.5598V15.1103ZM29.1708 15.1103C25.659 14.4839 25.0895 11.8073 25.0895 11.8073C24.0644 12.5666 24.4061 13.8385 24.4061 13.8385C23.0014 14.1422 21.9004 15.1103 21.9004 15.1103C21.9004 15.1103 23.0014 16.0974 24.4061 16.3822C24.4061 16.3822 24.0644 17.673 25.0895 18.4323C25.0895 18.4323 25.659 15.7557 29.1708 15.1103ZM37.0107 0C37.0107 0 36.0236 1.101 35.7199 2.50573C35.7199 2.50573 34.448 2.16404 33.6887 3.18911C33.6887 3.18911 36.3653 3.75859 37.0107 7.27041C37.6371 3.75859 40.3137 3.18911 40.3137 3.18911C39.5544 2.16404 38.2825 2.50573 38.2825 2.50573C37.9788 1.101 37.0107 0 37.0107 0V0ZM44.8316 15.1103C48.3434 14.4839 48.9129 11.8073 48.9129 11.8073C49.938 12.5666 49.5963 13.8385 49.5963 13.8385C51.001 14.1422 52.102 15.1103 52.102 15.1103C52.102 15.1103 51.001 16.0974 49.5963 16.3822C49.5963 16.3822 49.938 17.673 48.9129 18.4323C48.9129 18.4323 48.3434 15.7557 44.8316 15.1103ZM37.0107 30.2396C37.0107 30.2396 36.0236 29.1386 35.7199 27.7339C35.7199 27.7339 34.448 28.0756 33.6887 27.0505C33.6887 27.0505 36.3653 26.481 37.0107 22.9692C37.6371 26.481 40.3137 27.0505 40.3137 27.0505C39.5544 28.0756 38.2825 27.7339 38.2825 27.7339C37.9788 29.1386 37.0107 30.2396 37.0107 30.2396Z" fill="#543B12"/>
<path fill-rule="evenodd" clip-rule="evenodd" d="M37.0104 21.3557C35.283 21.3557 33.7074 20.6723 32.5874 19.5333C31.4485 18.4133 30.7461 16.8378 30.7461 15.1103C30.7461 13.3829 31.4485 11.8263 32.5874 10.7063C33.7074 9.56735 35.283 8.86499 37.0104 8.86499C38.7189 8.86499 40.2944 9.56735 41.4144 10.7063C42.5534 11.8263 43.2558 13.3829 43.2558 15.1103C43.2558 16.8378 42.5534 18.4133 41.4144 19.5333C40.2944 20.6723 38.7189 21.3557 37.0104 21.3557ZM33.1569 18.9638C34.144 19.9509 35.4918 20.5584 37.0104 20.5584C38.5101 20.5584 39.8578 19.9509 40.8449 18.9638C41.8321 17.9767 42.4395 16.61 42.4395 15.1103C42.4395 13.6107 41.8321 12.2629 40.8449 11.2758C39.8578 10.2887 38.5101 9.68125 37.0104 9.68125C35.4918 9.68125 34.144 10.2887 33.1569 11.2758C32.1698 12.2629 31.5624 13.6107 31.5624 15.1103C31.5624 16.61 32.1698 17.9767 33.1569 18.9638Z" fill="#543B12"/>
<path d="M40.56 11.6175C40.56 11.6175 40.56 11.3897 40.2372 11.3897C37.9783 11.3897 37.9783 12.5286 37.9783 12.5286C37.9783 14.7686 37.0102 14.7686 37.0102 14.7686C37.0102 14.7686 36.0231 14.7686 36.0231 12.5286C36.0231 12.5286 36.0231 11.3897 33.7641 11.3897C33.4414 11.3897 33.4414 11.6175 33.4414 11.6175C33.4414 11.6175 33.4414 11.8453 33.7641 11.8453C34.4095 11.8453 34.4095 12.5286 34.4095 12.5286C34.4095 14.37 35.8712 15.0154 35.8712 15.0154C35.8712 15.0154 34.4095 15.7178 34.4095 17.7299C34.4095 17.7299 34.4095 18.3943 33.7641 18.4133C33.4604 18.4133 33.4604 18.6221 33.4604 18.6221C33.4604 18.6221 33.4604 18.8499 33.7831 18.8499C36.0231 18.8499 36.0231 17.7299 36.0231 17.7299C36.0231 15.2242 37.0102 15.2242 37.0102 15.2242C37.0102 15.2242 37.9783 15.2242 37.9783 17.7299C37.9783 17.7299 37.9783 18.8499 40.2183 18.8499C40.541 18.8499 40.541 18.6221 40.541 18.6221C40.541 18.6221 40.541 18.4133 40.2372 18.4133C39.5918 18.3943 39.5918 17.7299 39.5918 17.7299C39.5918 15.7178 38.1302 15.0154 38.1302 15.0154C38.1302 15.0154 39.5918 14.37 39.5918 12.5286C39.5918 12.5286 39.5918 11.8453 40.2372 11.8453C40.56 11.8453 40.56 11.6175 40.56 11.6175Z" fill="#543B12"/>
<path d="M2.84009 35.327C2.47942 35.4029 2.13773 35.5548 1.81502 35.7636C1.49231 35.9724 1.20757 36.2192 0.960792 36.5229C0.732998 36.8266 0.524187 37.1493 0.372325 37.529C0.220462 37.9087 0.144531 38.2883 0.144531 38.668C0.144531 39.1236 0.220462 39.5602 0.353342 39.9398C0.505205 40.3385 0.714015 40.6801 0.998757 40.9649C1.2835 41.2496 1.60621 41.4774 1.98586 41.6483C2.36552 41.8191 2.80212 41.895 3.27669 41.895C3.73228 41.895 4.1499 41.8191 4.51058 41.6483C4.89023 41.4774 5.21294 41.2306 5.49768 40.9459C5.76344 40.6612 5.99124 40.3195 6.1431 39.9398C6.29496 39.5412 6.37089 39.1425 6.37089 38.7059C6.37089 38.3263 6.31394 37.9466 6.20005 37.5859C6.10513 37.2443 5.93429 36.9215 5.74446 36.6368C5.53565 36.371 5.30785 36.1433 5.02311 35.9724C4.75735 35.8205 4.45363 35.7256 4.13092 35.7256C4.33973 35.8395 4.51058 35.9724 4.64346 36.1622C4.77634 36.3521 4.89023 36.5609 4.96616 36.7887C5.04209 37.0165 5.08006 37.2253 5.11803 37.4531C5.13701 37.6809 5.15599 37.8897 5.15599 38.0605C5.15599 38.5161 5.0421 38.8958 4.8143 39.1995C4.58651 39.5222 4.2638 39.6741 3.84618 39.6741C3.5994 39.6741 3.37161 39.6361 3.1628 39.5222C2.97297 39.4273 2.82111 39.2944 2.68823 39.1236C2.55535 38.9717 2.46043 38.7819 2.40349 38.573C2.34654 38.3832 2.30857 38.1744 2.30857 37.9466C2.30857 37.6429 2.36552 37.3392 2.47942 37.0544C2.59331 36.7697 2.74518 36.5039 2.935 36.2761C3.12483 36.0483 3.35263 35.8585 3.5994 35.6877C3.84618 35.5358 4.11194 35.4029 4.39668 35.327H2.84009ZM8.78171 33.6755C8.64883 33.7514 8.53493 33.8653 8.42103 34.0172C8.30714 34.169 8.19324 34.3589 8.11731 34.5487C8.0224 34.7385 7.94646 34.9284 7.9085 35.1372C7.85155 35.346 7.83257 35.5358 7.83257 35.7066V38.668L7.81358 38.9337C7.77562 39.1995 7.75664 39.4463 7.75664 39.6551C7.73765 39.8639 7.71867 40.0537 7.68071 40.2435C7.64274 40.4334 7.62376 40.6232 7.58579 40.832C7.54783 41.0218 7.49088 41.2306 7.41495 41.4774C7.26308 41.7811 7.07326 42.0469 6.86444 42.2747C6.63665 42.4835 6.40886 42.5974 6.16208 42.5974C5.85836 42.5974 5.57361 42.4266 5.30785 42.0659C5.23192 42.2177 5.19396 42.3886 5.19396 42.5784C5.19396 42.8442 5.26989 43.091 5.42175 43.2998C5.57361 43.5086 5.72548 43.6415 5.9153 43.6984C5.99124 43.7174 6.04818 43.7364 6.10513 43.7554C6.16208 43.7554 6.21903 43.7554 6.25699 43.7554C6.44682 43.7554 6.61767 43.6984 6.75055 43.6035C6.78851 43.5845 6.84546 43.5276 6.92139 43.4706C6.99732 43.3947 7.07326 43.3188 7.14919 43.2428C7.22512 43.1479 7.30105 43.072 7.37698 42.996C7.45291 42.9011 7.49088 42.8442 7.52884 42.8062C7.62376 42.9771 7.75664 43.1859 7.92748 43.3947C8.09833 43.6035 8.28815 43.6984 8.51595 43.6984H8.53493C8.78171 43.6225 8.99052 43.5086 9.16136 43.3757C9.33221 43.2428 9.48407 43.091 9.59797 42.9391C9.71187 42.7683 9.7878 42.6164 9.84474 42.4455C9.92068 42.2747 9.97762 42.1039 10.0156 41.952C10.0725 42.1228 10.1295 42.2937 10.1675 42.4645C10.2244 42.6354 10.2813 42.8062 10.3383 42.9771C10.3952 43.1479 10.4712 43.2808 10.5471 43.4137C10.623 43.5465 10.7369 43.6415 10.8508 43.6984C11.1546 43.7933 11.4203 43.8693 11.6481 43.8882C11.8949 43.9072 12.1796 43.9262 12.5023 43.9262C12.92 43.9262 13.2237 43.7743 13.4325 43.4896C13.6603 43.2049 13.8311 42.8252 13.964 42.3316C13.926 42.4076 13.8501 42.4835 13.7362 42.5405C13.6033 42.5974 13.4705 42.6544 13.3376 42.6923C13.1857 42.7303 13.0339 42.7683 12.882 42.7872C12.7301 42.8062 12.6162 42.8252 12.5213 42.8252C11.6861 42.8252 11.2115 42.7113 11.0786 42.4645C11.0407 42.3127 10.9837 42.1038 10.9457 41.8571C10.9078 41.6103 10.8888 41.3635 10.8888 41.0978V36.1622C10.661 36.428 10.5091 36.6938 10.4332 36.9785C10.3573 37.2443 10.3193 37.6049 10.3193 38.0415C10.2434 38.9907 10.1295 39.75 10.0156 40.3005C9.90169 40.851 9.76881 41.2496 9.63593 41.5344C9.48407 41.8001 9.35119 41.971 9.21831 42.0469C9.06645 42.1039 8.93357 42.1418 8.81967 42.1418C8.74374 42.0469 8.66781 41.895 8.62984 41.7052C8.59188 41.5154 8.55391 41.3066 8.53493 41.0978C8.49697 40.87 8.47798 40.6422 8.47798 40.4144C8.47798 40.1866 8.47798 39.9588 8.47798 39.75C8.47798 38.8768 8.47798 38.1175 8.51595 37.51C8.53493 36.8836 8.55391 36.3331 8.59188 35.8775C8.62984 35.4219 8.64883 35.0233 8.68679 34.6816C8.72476 34.3399 8.74374 33.9982 8.78171 33.6755ZM16.8304 40.1107C16.147 40.2625 15.5776 40.6801 15.103 41.3256C14.7993 41.7622 14.6284 42.2177 14.6284 42.7113C14.6284 43.072 14.7043 43.3187 14.8372 43.4706C14.9891 43.6035 15.1979 43.6794 15.4637 43.6794C15.8623 43.6794 16.166 43.5845 16.4128 43.3757C16.5836 43.2428 16.7355 43.1289 16.8874 42.996C17.0392 42.8632 17.1911 42.7113 17.324 42.5405C17.3809 42.8442 17.4569 43.091 17.5518 43.2618C17.6467 43.4326 17.7606 43.5465 17.8935 43.6415C18.0263 43.7174 18.1592 43.7554 18.3301 43.7743C18.5009 43.7933 18.6717 43.7933 18.8616 43.7933H18.9375C19.6399 43.7933 20.2473 43.6415 20.7219 43.3567C21.1965 43.053 21.4812 42.5405 21.5382 41.8001C21.1015 42.0659 20.6649 42.2557 20.2473 42.3886C19.8487 42.5025 19.469 42.5594 19.1273 42.5594C18.9565 42.5594 18.8236 42.5025 18.7287 42.4076C18.4819 42.1608 18.349 41.8381 18.349 41.4774V40.1866L17.5138 40.7751C17.5138 40.3384 17.286 40.1107 16.8304 40.1107ZM15.9192 42.5784C15.8433 42.5974 15.7864 42.6164 15.7104 42.6164C15.6155 42.6164 15.5586 42.5594 15.5206 42.4645C15.5206 42.3316 15.5776 42.1798 15.6535 42.0279C15.7484 41.8571 15.8433 41.7052 15.9762 41.5723C16.0901 41.4395 16.223 41.3066 16.3748 41.2117C16.5077 41.1167 16.6406 41.0408 16.7545 41.0218C16.9063 40.9649 17.0202 40.9269 17.1152 40.9269C17.248 40.9269 17.324 41.0028 17.324 41.1357C17.324 41.2686 17.267 41.4015 17.1531 41.5723C16.7165 42.1039 16.2989 42.4455 15.9192 42.5784ZM23.8541 40.5662L22.6012 39.5602V43.4706C22.6012 43.7174 22.5822 44.0211 22.5822 44.3818C22.5632 44.7425 22.5253 45.1221 22.4683 45.5208C22.4114 45.9194 22.3354 46.2991 22.2026 46.6977C22.0887 47.0963 21.9178 47.457 21.728 47.7797C21.5192 48.0834 21.2724 48.3492 20.9687 48.539C20.6649 48.7478 20.3043 48.8427 19.8677 48.8427C19.6589 48.8427 19.4311 48.8048 19.2033 48.7478C18.9945 48.6719 18.7856 48.596 18.5958 48.4631C18.406 48.3492 18.2351 48.1973 18.1023 48.0455C17.9694 47.8746 17.8745 47.7038 17.8175 47.514C17.7416 47.7038 17.7036 47.9316 17.7036 48.1973C17.7036 48.8048 17.8935 49.2604 18.2731 49.5831C18.6338 49.8868 19.1653 50.0576 19.8487 50.0576C20.551 50.0576 21.1205 49.8678 21.5192 49.4882C21.9178 49.1085 22.2405 48.577 22.4873 47.9126C22.7341 47.2482 22.9239 46.4889 23.0758 45.5967C23.2086 44.7045 23.3605 43.7554 23.5503 42.7493C23.5503 42.6164 23.6073 42.4455 23.7212 42.2367C23.8351 42.0279 23.968 41.8191 24.1198 41.6103C24.2907 41.4015 24.4615 41.2306 24.6513 41.0978C24.8412 40.9459 25.012 40.87 25.1639 40.87C25.3537 40.87 25.5056 40.9649 25.6574 41.1167C25.7903 41.2876 25.8662 41.4964 25.8662 41.7432C25.8662 41.952 25.8093 42.1608 25.6954 42.3506C25.5815 42.5215 25.4296 42.6164 25.2778 42.6164C25.2398 42.6164 25.1259 42.5974 24.8981 42.5594C24.6893 42.5215 24.4235 42.4455 24.1388 42.3127L23.8351 42.6544C23.968 42.8632 24.1578 43.091 24.3856 43.2998C24.6134 43.5086 24.8222 43.6035 25.031 43.6035C25.2398 43.6035 25.4296 43.5465 25.6005 43.4137C25.7713 43.2808 25.9232 43.1099 26.0371 42.9011C26.151 42.6923 26.2459 42.4835 26.3218 42.2557C26.3788 42.0089 26.4167 41.8001 26.4167 41.6103C26.4167 41.4015 26.3788 41.1927 26.3408 40.9839C26.3028 40.794 26.2269 40.6042 26.132 40.4523C26.0371 40.2815 25.9042 40.1676 25.7523 40.0727C25.5815 39.9778 25.3917 39.9208 25.1639 39.9208C24.9361 39.9208 24.6893 39.9968 24.4425 40.1486C24.1768 40.3005 23.9869 40.4523 23.8541 40.5662ZM33.1936 34.2829C33.1936 34.5867 33.2316 34.8145 33.2885 34.9663C33.3644 35.1372 33.4404 35.327 33.5163 35.5358C33.7441 35.3839 34.0099 35.308 34.2756 35.27C34.5604 35.27 34.8071 35.327 35.0159 35.4029C35.2248 35.4789 35.4525 35.6497 35.6803 35.8965C35.8892 36.1433 36.1169 36.4849 36.3637 36.9405C36.6105 37.3961 36.8763 37.9846 37.199 38.7059C36.5725 39.8449 36.06 40.7181 35.6424 41.3445C35.2248 41.971 34.8641 42.4266 34.5604 42.7303C34.2566 43.034 33.9909 43.2238 33.7821 43.2808C33.5543 43.3377 33.3265 43.3757 33.0797 43.3757C32.757 43.3757 32.4722 43.3188 32.2445 43.2238C31.9977 43.1099 31.8078 42.9771 31.618 42.8442V43.8313C31.618 43.8503 31.599 43.8692 31.599 43.9072C31.599 44.5147 31.7319 44.9703 31.9977 45.293C32.2445 45.6157 32.7 45.7865 33.3455 45.7865C33.7631 45.7865 34.1238 45.6726 34.4275 45.4448C34.7502 45.217 35.0349 44.9133 35.3007 44.5526C35.5475 44.192 35.7942 43.7743 36.003 43.3187C36.2119 42.8632 36.4017 42.4076 36.6105 41.952C36.8003 41.4774 36.9902 41.0408 37.18 40.6232C37.3698 40.2056 37.5786 39.8639 37.7874 39.5791C38.243 40.4523 38.5847 41.1357 38.8315 41.6483C39.0783 42.1608 39.2871 42.5405 39.42 42.8062C39.5528 43.072 39.6667 43.2428 39.7427 43.3377C39.8186 43.4137 39.9135 43.4516 40.0084 43.4516C40.2742 43.4516 40.521 43.3947 40.7487 43.2998C40.9576 43.2049 41.1474 43.072 41.3372 42.9391L41.9257 40.9269C41.8877 40.9649 41.8687 40.9839 41.8498 40.9839C41.6789 41.0978 41.4511 41.2306 41.1854 41.3635C40.9006 41.4964 40.5589 41.5533 40.1603 41.5533C40.0274 41.5533 39.8945 41.5154 39.7806 41.4395C39.6857 41.3445 39.5528 41.2117 39.42 41.0218C39.2871 40.813 39.1542 40.5662 38.9833 40.2246C38.8125 39.9018 38.6227 39.5032 38.3759 39.0097L38.243 38.7439L41.1284 33.8273L39.2681 34.7006L37.7685 37.7188C37.3698 36.7127 37.0661 35.8775 36.9142 35.2321C36.7434 34.6056 36.5915 34.0931 36.4586 33.7324C36.3258 33.3528 36.1549 33.106 35.9651 32.9731C35.7563 32.8213 35.4336 32.7643 34.959 32.7643L33.1936 34.2829ZM44.7351 40.1107C44.0518 40.2625 43.4633 40.6801 43.0077 41.3256C42.685 41.7622 42.5331 42.2177 42.5331 42.7113C42.5331 43.072 42.5901 43.3187 42.7419 43.4706C42.8748 43.6035 43.0836 43.6794 43.3684 43.6794C43.748 43.6794 44.0707 43.5845 44.3175 43.3757C44.4694 43.2428 44.6402 43.1289 44.7921 42.996C44.944 42.8632 45.0768 42.7113 45.2287 42.5405C45.2667 42.8442 45.3426 43.091 45.4375 43.2618C45.5324 43.4326 45.6463 43.5465 45.7792 43.6415C45.9121 43.7174 46.0639 43.7554 46.2158 43.7743C46.3866 43.7933 46.5575 43.7933 46.7473 43.7933H46.8232C47.5446 43.7933 48.1331 43.6415 48.6076 43.3567C49.1012 43.053 49.3669 42.5405 49.4239 41.8001C48.9873 42.0659 48.5697 42.2557 48.152 42.3886C47.7344 42.5025 47.3548 42.5594 47.0131 42.5594C46.8612 42.5594 46.7283 42.5025 46.6144 42.4076C46.3677 42.1608 46.2348 41.8381 46.2348 41.4774V40.1866L45.4185 40.7751C45.4185 40.3384 45.1907 40.1107 44.7351 40.1107ZM43.824 42.5784C43.748 42.5974 43.6721 42.6164 43.6152 42.6164C43.5013 42.6164 43.4443 42.5594 43.4253 42.4645C43.4253 42.3316 43.4633 42.1798 43.5582 42.0279C43.6341 41.8571 43.748 41.7052 43.8619 41.5723C43.9758 41.4395 44.1087 41.3066 44.2606 41.2117C44.4124 41.1167 44.5453 41.0408 44.6592 41.0218C44.8111 40.9649 44.925 40.9269 45.0199 40.9269C45.1528 40.9269 45.2287 41.0028 45.2287 41.1357C45.2287 41.2686 45.1717 41.4015 45.0578 41.5723C44.6023 42.1039 44.2036 42.4455 43.824 42.5784ZM50.9615 33.7894L50.2781 34.6056V41.7622C50.2781 41.99 50.2971 42.2177 50.3351 42.4645C50.354 42.6923 50.411 42.9011 50.4679 43.091C50.5439 43.2618 50.6198 43.4137 50.7147 43.5465C50.8286 43.6604 50.9425 43.7174 51.0754 43.7174H51.0944C51.4361 43.7174 51.8727 43.3187 52.4232 42.5025C52.5181 42.7872 52.613 42.996 52.7079 43.1479C52.7839 43.2998 52.8788 43.4137 52.9737 43.4896C53.0686 43.5655 53.1825 43.6035 53.3154 43.6225C53.4482 43.6415 53.6001 43.6415 53.771 43.6415C54.4354 43.6415 55.0618 43.5086 55.6313 43.2428C55.954 42.996 56.1628 42.8062 56.2387 42.6354C56.3147 42.4645 56.3716 42.2367 56.3906 41.971C56.0299 42.2367 55.6123 42.4266 55.1567 42.5405C54.6821 42.6544 54.2076 42.7113 53.771 42.7113C53.5621 42.7113 53.3723 42.5974 53.2015 42.3886C53.0306 42.1608 52.9547 41.895 52.9547 41.6103C52.9547 41.2117 53.0496 40.5662 53.2584 39.6741C53.2584 39.5412 53.2205 39.4463 53.1635 39.4273C53.0306 39.4273 52.9547 39.4463 52.9357 39.5032C52.8598 39.693 52.7649 39.9588 52.67 40.2815C52.575 40.6042 52.4422 40.9459 52.3093 41.2686C52.1764 41.5913 52.0056 41.8761 51.8347 42.1228C51.6449 42.3696 51.4361 42.4835 51.2083 42.4835C51.0564 42.4835 50.9615 42.3696 50.9425 42.1228L51.5879 33.7894H50.9615ZM52.67 36.2192C52.4801 36.2571 52.3093 36.409 52.2144 36.6368C52.1195 36.8646 52.0625 37.0924 52.0625 37.3012C52.0625 37.6049 52.1384 37.8327 52.3093 37.9846C52.4611 38.1554 52.651 38.2314 52.8977 38.2314C53.1825 38.2314 53.4672 38.1175 53.714 37.8517C53.9608 37.6049 54.1316 37.2443 54.2265 36.7887C53.9038 37.2822 53.5811 37.529 53.2584 37.529C52.8598 37.529 52.67 37.0924 52.67 36.2192ZM58.3268 39.9588C58.3268 40.4144 58.4597 40.813 58.7255 41.1547C58.9912 41.4964 59.4278 41.6672 60.0353 41.6672C59.8455 42.2367 59.3329 42.5215 58.4977 42.5215C57.8712 42.5215 57.2448 42.3886 56.5994 42.1228C56.6563 42.3696 56.7323 42.5784 56.8272 42.7493C56.9221 42.9201 57.036 43.053 57.1689 43.1479C57.3207 43.2428 57.4916 43.3377 57.7004 43.3947C57.9092 43.4516 58.175 43.5276 58.4787 43.5845C58.7824 43.5845 59.0672 43.5276 59.3139 43.4326C59.5417 43.3377 59.7505 43.2049 59.9214 43.072C60.0922 42.9201 60.2441 42.7683 60.358 42.6164C60.4719 42.4455 60.5478 42.3127 60.6237 42.1988L60.6617 42.1228C60.6617 42.1039 60.6807 42.0849 60.6807 42.0659C60.6997 42.0469 60.6997 42.0469 60.6997 42.0469C60.7946 42.3696 60.9085 42.6354 61.0224 42.8252C61.1363 43.015 61.2692 43.1859 61.459 43.3377C61.7248 43.4706 62.0095 43.5845 62.3132 43.6415C62.598 43.6984 62.9017 43.7174 63.2054 43.7174C63.5281 43.7174 63.8129 43.6035 64.0786 43.3377C64.3444 43.091 64.4583 42.7682 64.4583 42.3696C64.3634 42.4266 64.2115 42.4835 64.0027 42.5405C63.7939 42.5974 63.5471 42.6164 63.2624 42.6164C62.6169 42.6164 62.1044 42.4835 61.7437 42.2367C61.3641 41.99 61.1932 41.6672 61.1932 41.2686V41.2117L61.9715 38.5351L61.7058 37.6049L60.7187 40.1676C60.5288 39.8639 60.2821 39.5791 59.9594 39.3134C59.6366 39.0856 59.3329 38.9527 59.0292 38.9527C58.7634 38.9527 58.5736 39.0476 58.4407 39.2374L58.3268 39.9588ZM62.522 40.5662C62.522 40.7561 62.579 40.889 62.7308 41.0028C62.8637 41.1167 63.0346 41.1737 63.2434 41.1737C63.4332 41.1737 63.604 41.1167 63.7559 41.0028C63.8888 40.889 63.9647 40.7561 63.9647 40.5662C63.9647 40.3954 63.8888 40.2435 63.7559 40.1296C63.604 39.9968 63.4332 39.9398 63.2434 39.9398C63.0346 39.9398 62.8637 39.9968 62.7308 40.1296C62.579 40.2435 62.522 40.3954 62.522 40.5662ZM59.9783 40.87C59.9404 40.9839 59.8455 41.0408 59.7126 41.0408C59.4848 41.0408 59.3139 40.9269 59.2 40.7181C59.0861 40.5093 59.0292 40.3005 59.0292 40.1107V40.0727C59.1051 39.9968 59.1811 39.9398 59.276 39.9398C59.3519 39.9398 59.4278 39.9778 59.5038 40.0537C59.5987 40.1296 59.6746 40.2246 59.7316 40.3195C59.8075 40.4334 59.8644 40.5283 59.9024 40.6422C59.9594 40.7371 59.9783 40.813 59.9783 40.87ZM68.6535 33.6755C68.5396 33.7514 68.4067 33.8653 68.2928 34.0172C68.1789 34.169 68.084 34.3589 67.9891 34.5487C67.9131 34.7385 67.8372 34.9284 67.7803 35.1372C67.7423 35.346 67.7043 35.5358 67.7043 35.7066V38.668L67.6854 38.9337C67.6664 39.1995 67.6474 39.4463 67.6284 39.6551C67.6284 39.8639 67.6094 40.0537 67.5715 40.2435C67.5335 40.4334 67.4955 40.6232 67.4576 40.832C67.4196 41.0218 67.3626 41.2306 67.2867 41.4774C67.1348 41.7811 66.964 42.0469 66.7362 42.2747C66.5274 42.4835 66.2996 42.5974 66.0338 42.5974C65.7491 42.5974 65.4644 42.4266 65.1796 42.0659C65.1037 42.2177 65.0657 42.3886 65.0657 42.5784C65.0657 42.8442 65.1417 43.091 65.2935 43.2998C65.4454 43.5086 65.6162 43.6415 65.7871 43.6984C65.863 43.7174 65.9389 43.7364 65.9959 43.7554C66.0528 43.7554 66.0908 43.7554 66.1288 43.7554C66.3376 43.7554 66.5084 43.6984 66.6223 43.6035C66.6603 43.5845 66.7172 43.5276 66.7932 43.4706C66.8691 43.3947 66.964 43.3188 67.0399 43.2428C67.1159 43.1479 67.1918 43.072 67.2677 42.996C67.3437 42.9011 67.3816 42.8442 67.4006 42.8062C67.5145 42.9771 67.6474 43.1859 67.8182 43.3947C67.9891 43.6035 68.1789 43.6984 68.3877 43.6984H68.4067C68.6725 43.6225 68.8813 43.5086 69.0521 43.3757C69.223 43.2428 69.3558 43.091 69.4697 42.9391C69.5836 42.7683 69.6785 42.6164 69.7355 42.4455C69.8114 42.2747 69.8684 42.1039 69.9063 41.952C69.9633 42.1228 70.0202 42.2937 70.0582 42.4645C70.1152 42.6354 70.1721 42.8062 70.229 42.9771C70.286 43.1479 70.3429 43.2808 70.4379 43.4137C70.5138 43.5465 70.6277 43.6415 70.7416 43.6984C71.0263 43.7933 71.2921 43.8693 71.5389 43.8882C71.7856 43.9072 72.0704 43.9262 72.3931 43.9262C72.7917 43.9262 73.1144 43.7743 73.3232 43.4896C73.5321 43.2049 73.7219 42.8252 73.8548 42.3316C73.8168 42.4076 73.7409 42.4835 73.627 42.5405C73.4941 42.5974 73.3612 42.6544 73.2283 42.6923C73.0765 42.7303 72.9246 42.7683 72.7727 42.7872C72.6209 42.8062 72.507 42.8252 72.4121 42.8252C71.5768 42.8252 71.1023 42.7113 70.9694 42.4645C70.9124 42.3127 70.8745 42.1038 70.8365 41.8571C70.7985 41.6103 70.7795 41.3635 70.7795 41.0978V36.1622C70.5518 36.428 70.3999 36.6938 70.324 36.9785C70.248 37.2443 70.2101 37.6049 70.2101 38.0415C70.1341 38.9907 70.0202 39.75 69.9063 40.3005C69.7735 40.851 69.6596 41.2496 69.5077 41.5344C69.3748 41.8001 69.2419 41.971 69.0901 42.0469C68.9572 42.1039 68.8243 42.1418 68.6914 42.1418C68.6155 42.0469 68.5586 41.895 68.5206 41.7052C68.4636 41.5154 68.4447 41.3066 68.4067 41.0978C68.3877 40.87 68.3687 40.6422 68.3687 40.4144C68.3497 40.1866 68.3497 39.9588 68.3497 39.75C68.3497 38.8768 68.3687 38.1175 68.3877 37.51C68.4257 36.8836 68.4447 36.3331 68.4826 35.8775C68.5016 35.4219 68.5396 35.0233 68.5775 34.6816C68.5965 34.3399 68.6345 33.9982 68.6535 33.6755Z" fill="#543B12"/>
<path d="M12.9766 50.6271H13.584V51.1776C13.584 51.3105 13.603 51.4054 13.622 51.4624C13.641 51.5193 13.6979 51.5763 13.7738 51.6332C13.8498 51.6712 13.9447 51.6902 14.0396 51.6902C14.1535 51.6902 14.2864 51.6712 14.4193 51.6142V50.6271H15.0267V52.943H14.4193V52.0129C14.1725 52.0888 14.0016 52.1268 13.8688 52.1268C13.6789 52.1268 13.5081 52.0698 13.3562 51.9939C13.2044 51.9179 13.1094 51.8041 13.0525 51.6902C12.9955 51.5573 12.9766 51.3864 12.9766 51.1776V50.6271ZM21.1771 51.3485L20.6076 51.2346C20.6836 51.0258 20.7785 50.8549 20.9304 50.741C21.1012 50.6271 21.31 50.5702 21.6137 50.5702C21.8985 50.5702 22.1073 50.6081 22.2402 50.6651C22.3731 50.741 22.468 50.8169 22.5249 50.9119C22.5629 51.0258 22.6008 51.1966 22.6008 51.4624L22.5819 52.1837C22.5819 52.3925 22.6008 52.5444 22.6198 52.6393C22.6388 52.7342 22.6768 52.8481 22.7337 52.943H22.1263C22.1073 52.9051 22.0883 52.8481 22.0693 52.7722C22.0503 52.7342 22.0503 52.7152 22.0314 52.6962C21.9364 52.8101 21.8225 52.8861 21.7087 52.924C21.5758 52.981 21.4619 53 21.329 53C21.0822 53 20.8924 52.943 20.7595 52.8101C20.6266 52.6773 20.5507 52.5254 20.5507 52.3166C20.5507 52.1837 20.5887 52.0698 20.6456 51.9749C20.7026 51.861 20.7975 51.7851 20.9114 51.7281C21.0253 51.6902 21.1771 51.6332 21.4049 51.5952C21.6897 51.5383 21.8795 51.4813 21.9934 51.4434V51.3864C21.9934 51.2535 21.9744 51.1776 21.8985 51.1207C21.8415 51.0637 21.7466 51.0447 21.5758 51.0447C21.4619 51.0447 21.3859 51.0637 21.31 51.1207C21.2531 51.1586 21.2151 51.2346 21.1771 51.3485ZM21.9934 51.842C21.9175 51.861 21.7846 51.899 21.6137 51.9369C21.4429 51.9749 21.329 52.0129 21.291 52.0318C21.2151 52.0888 21.1581 52.1647 21.1581 52.2596C21.1581 52.3356 21.1961 52.4115 21.2531 52.4874C21.329 52.5444 21.4049 52.5823 21.4998 52.5823C21.6137 52.5823 21.7276 52.5444 21.8225 52.4684C21.8985 52.4115 21.9554 52.3356 21.9744 52.2596C21.9934 52.2027 21.9934 52.1078 21.9934 51.9559V51.842ZM28.2577 50.6271H28.8462V52.0888L29.7953 50.6271H30.4028V52.943H29.8143V51.4624L28.8462 52.943H28.2577V50.6271ZM29.7194 49.697H30.0231C30.0041 49.8868 29.9282 50.0387 29.8143 50.1525C29.7004 50.2664 29.5296 50.3234 29.3397 50.3234C29.1499 50.3234 28.998 50.2664 28.8652 50.1525C28.7513 50.0387 28.6753 49.8868 28.6564 49.697H28.9601C28.9791 49.7919 28.998 49.8678 29.074 49.9248C29.1309 49.9817 29.2258 50.0007 29.3397 50.0007C29.4536 50.0007 29.5486 49.9817 29.6055 49.9248C29.6814 49.8678 29.7194 49.7919 29.7194 49.697ZM35.8129 52.943L36.6481 51.7471L35.8319 50.6271H36.5912L37.0088 51.2725L37.4454 50.6271H38.1478L37.3695 51.7281L38.2237 52.943H37.4834L37.0088 52.2217L36.5152 52.943H35.8129ZM44.1273 51.3485L43.5579 51.2346C43.6338 51.0258 43.7477 50.8549 43.8995 50.741C44.0514 50.6271 44.2792 50.5702 44.5639 50.5702C44.8487 50.5702 45.0575 50.6081 45.1904 50.6651C45.3233 50.741 45.4182 50.8169 45.4751 50.9119C45.5321 51.0258 45.5511 51.1966 45.5511 51.4624V52.1837C45.5511 52.3925 45.5511 52.5444 45.57 52.6393C45.589 52.7342 45.627 52.8481 45.6839 52.943H45.0765C45.0575 52.9051 45.0385 52.8481 45.0195 52.7722C45.0005 52.7342 45.0006 52.7152 44.9816 52.6962C44.8867 52.8101 44.7728 52.8861 44.6589 52.924C44.545 52.981 44.4121 53 44.2792 53C44.0324 53 43.8426 52.943 43.7097 52.8101C43.5768 52.6773 43.5009 52.5254 43.5009 52.3166C43.5009 52.1837 43.5389 52.0698 43.5958 51.9749C43.6528 51.861 43.7477 51.7851 43.8616 51.7281C43.9755 51.6902 44.1463 51.6332 44.3551 51.5952C44.6399 51.5383 44.8297 51.4813 44.9436 51.4434V51.3864C44.9436 51.2535 44.9246 51.1776 44.8677 51.1207C44.7917 51.0637 44.6968 51.0447 44.526 51.0447C44.4121 51.0447 44.3362 51.0637 44.2792 51.1207C44.2033 51.1586 44.1653 51.2346 44.1273 51.3485ZM44.9436 51.842C44.8677 51.861 44.7348 51.899 44.5639 51.9369C44.3931 51.9749 44.2982 52.0129 44.2412 52.0318C44.1653 52.0888 44.1273 52.1647 44.1273 52.2596C44.1273 52.3356 44.1463 52.4115 44.2223 52.4874C44.2792 52.5444 44.3551 52.5823 44.4501 52.5823C44.5639 52.5823 44.6778 52.5444 44.7728 52.4684C44.8487 52.4115 44.9056 52.3356 44.9246 52.2596C44.9436 52.2027 44.9436 52.1078 44.9436 51.9559V51.842ZM51.2079 50.6271H51.8154V51.4813H52.7076V50.6271H53.315V52.943H52.7076V51.9749H51.8154V52.943H51.2079V50.6271ZM59.4655 51.3485L58.9149 51.2346C58.9719 51.0258 59.0858 50.8549 59.2377 50.741C59.3895 50.6271 59.6173 50.5702 59.921 50.5702C60.1868 50.5702 60.3956 50.6081 60.5285 50.6651C60.6614 50.741 60.7563 50.8169 60.8132 50.9119C60.8702 51.0258 60.8892 51.1966 60.8892 51.4624V52.1837C60.8892 52.3925 60.8892 52.5444 60.9081 52.6393C60.9271 52.7342 60.9651 52.8481 61.022 52.943H60.4146C60.3956 52.9051 60.3766 52.8481 60.3576 52.7722C60.3387 52.7342 60.3387 52.7152 60.3387 52.6962C60.2248 52.8101 60.1109 52.8861 59.997 52.924C59.8831 52.981 59.7502 53 59.6173 53C59.3705 53 59.1807 52.943 59.0478 52.8101C58.9149 52.6773 58.839 52.5254 58.839 52.3166C58.839 52.1837 58.877 52.0698 58.9339 51.9749C59.0099 51.861 59.0858 51.7851 59.1997 51.7281C59.3136 51.6902 59.4844 51.6332 59.6932 51.5952C59.978 51.5383 60.1678 51.4813 60.2817 51.4434V51.3864C60.2817 51.2535 60.2627 51.1776 60.2058 51.1207C60.1488 51.0637 60.0349 51.0447 59.8641 51.0447C59.7502 51.0447 59.6743 51.0637 59.6173 51.1207C59.5414 51.1586 59.5034 51.2346 59.4655 51.3485ZM60.2817 51.842C60.2058 51.861 60.0919 51.899 59.921 51.9369C59.7502 51.9749 59.6363 52.0129 59.5793 52.0318C59.5034 52.0888 59.4655 52.1647 59.4655 52.2596C59.4655 52.3356 59.4844 52.4115 59.5604 52.4874C59.6173 52.5444 59.6932 52.5823 59.8071 52.5823C59.9021 52.5823 60.0159 52.5444 60.1109 52.4684C60.1868 52.4115 60.2437 52.3356 60.2627 52.2596C60.2817 52.2027 60.2817 52.1078 60.2817 51.9559V51.842Z" fill="#543B12"/>
</svg>
