<svg width="129" height="102" viewBox="0 0 129 102" fill="none" xmlns="http://www.w3.org/2000/svg">
<path d="M74.2688 58.252C83.6506 44.043 85.7029 28.1347 83.8265 21.0538C83.9673 21.6439 84.0142 22.1867 83.8969 22.8594C83.3692 25.4321 80.4491 26.6713 78.2561 25.2551C76.8957 24.3818 75.6174 23.4023 74.4213 22.3284C73.5652 21.5495 72.4628 21.101 71.3135 21.0538L65.8017 20.8178C63.3625 20.7234 61.9317 18.5519 62.049 17.5252C62.0959 17.0531 62.4946 16.6991 62.9637 16.6991H65.0043L80.8244 9.52378C80.883 9.50017 80.9182 9.44116 80.9182 9.37036V7.01007C80.9182 6.95106 80.883 6.89205 80.8361 6.86845C80.7892 6.83304 80.7305 6.83304 80.6719 6.85665L34.7362 29.8341C34.7362 30.1409 34.7362 30.2353 34.7479 30.6838C34.7479 30.9434 34.7596 31.2857 34.7714 31.4037L59.3752 22.2221C60.0202 22.529 60.7355 22.6942 61.4744 22.6942H67.8657C68.5459 22.6942 69.2026 22.9774 69.6717 23.4731C71.3956 25.3023 73.3189 26.9427 75.4064 28.3589C75.9693 28.7365 76.239 29.4328 76.0983 30.1055C73.2368 43.0281 63.2569 53.2482 50.5094 56.3992C54.6843 58.6414 59.4455 59.9042 64.5 59.9042C67.9244 59.9042 71.208 59.3259 74.2688 58.252ZM68.6984 16.6991L81.5397 11.3412C81.5984 11.3058 81.6687 11.3294 81.7156 11.3766L83.3575 13.0288C83.4044 13.0642 83.4161 13.1232 83.4044 13.1822C83.3926 13.2294 83.3575 13.2766 83.2988 13.3002L75.8637 16.0736C74.7614 16.4866 73.5886 16.6991 72.4159 16.6991H68.6984Z" fill="black"/>
<path d="M83.8969 22.8594C83.3692 25.4321 80.4491 26.6713 78.2561 25.2551C76.8957 24.3818 75.6174 23.4023 74.4213 22.3284C73.5652 21.5495 72.4628 21.101 71.3135 21.0538L65.8017 20.8178C64.3241 20.7588 63.0458 19.9209 62.3656 18.7053C62.4008 18.7525 62.4243 18.7879 62.4594 18.8351C62.7761 19.1892 63.2335 19.3898 63.7143 19.3898C64.5352 19.3898 65.4382 19.3898 66.2825 19.3898C66.5757 19.3898 66.8455 19.1774 66.9275 18.8823C66.9979 18.6109 67.0331 18.3277 67.0331 18.0444C67.0331 17.7494 66.9979 17.4662 66.9275 17.1947C66.8455 16.8997 66.5874 16.6991 66.2825 16.6991C65.8604 16.6991 65.4382 16.6991 65.0043 16.6991L76.2155 11.6126C76.8488 11.9431 77.4821 12.3325 78.1036 12.7692L68.6984 16.6991H72.4159C73.5886 16.6991 74.7614 16.4866 75.8637 16.0736L80.0973 14.4922C81.5984 16.0264 82.7242 17.8438 83.4395 19.8146C83.6037 20.2631 83.7327 20.6644 83.8265 21.0538C83.9673 21.6321 84.0142 22.1867 83.8969 22.8594ZM72.9671 10.4089C72.0406 10.1847 71.079 10.2319 70.176 10.5505C68.0064 11.3058 64.6994 12.0847 63.2921 12.3915C62.8582 12.4977 62.4595 12.6984 62.1428 13.0052C62.1428 13.0052 62.1428 13.017 62.1311 13.017C61.8614 13.2766 61.5682 13.5717 61.3102 13.8431C59.8091 15.4363 58.1438 16.8643 56.3261 18.0916C56.244 18.1388 56.1971 18.2333 56.1854 18.3395C56.1736 18.4339 56.2088 18.5283 56.2792 18.5991C56.3965 18.7053 56.5137 18.7997 56.631 18.8823L73.3658 10.5151C73.2368 10.4797 73.1078 10.4443 72.9671 10.4089Z" fill="white"/>
<path d="M58.7536 94.8247H57.6982C57.6982 96.4769 56.1385 97.9049 54.6843 98.3179V94.8247H53.5467V101.481H54.6843V99.3801C55.1768 99.2975 55.7866 99.085 56.2557 98.7782L58.4604 101.717L59.34 101.115L57.1353 98.1055C58.0617 97.3384 58.7536 96.0403 58.7536 94.8247ZM89.6902 98.2707H87.1805L86.7115 94.8247H85.5504L86.2541 99.3565H89.2445C88.752 100.088 88.0953 100.655 87.2275 101.009L87.6262 102C90.816 100.843 91.2147 97.5036 91.2147 94.8247H90.0772C90.0772 96.1465 89.9482 97.3738 89.6902 98.2707ZM65.1098 99.1087L64.3241 95.8278H62.7175L61.92 99.1087H65.1098ZM65.1567 94.8247L66.9041 101.481L65.7431 101.693L65.3678 100.135H61.6503L61.275 101.693L60.1726 101.481L61.8496 94.8247H65.1567ZM84.1666 94.8247H83.0174C83.0174 96.4769 81.4928 97.9049 80.109 98.3179V94.8247H78.9597V101.481H80.109V99.3801C80.5194 99.2975 81.1996 99.085 81.6453 98.7782L83.8383 101.717L84.7178 101.115L82.5248 98.1055C83.4278 97.3384 84.1666 96.0403 84.1666 94.8247ZM98.4035 95.4266L97.4419 94.7185L95.3193 97.2912L93.2435 94.7185L92.2936 95.4266L94.5687 98.0819L92.1998 101.032L93.0676 101.717L95.2841 98.967L97.6295 101.717L98.5325 101.032L96.0815 98.1055L98.4035 95.4266ZM111.538 95.8278H109.673C108.489 95.8278 108.348 96.5123 108.348 96.9844C108.348 98.0347 109.427 98.5776 111.538 98.5776V95.8278ZM113.543 94.8247V95.8986H112.652V101.481H111.538V99.5925C110.87 99.5571 110.096 99.4981 109.498 99.3565L108.067 101.693L107.023 101.28L108.43 98.9788C107.633 98.5776 107.152 97.9049 107.152 96.9844C107.152 95.8986 107.762 94.8247 109.65 94.8247H113.543ZM104.326 97.6807H101.042V94.8247H99.9281V101.481H101.042V98.8254H104.326V101.481H105.487V94.8247H104.326V97.6807ZM72.2517 95.8514H69.9766C69.4489 95.8514 69.1557 96.2291 69.1557 96.7129C69.1557 97.362 69.66 98.0937 70.5161 98.8254C70.9969 99.2149 71.5715 99.5571 72.2517 99.8993V95.8514ZM73.3424 100.478C73.5535 100.584 73.8115 100.631 74.2336 100.796L73.8114 101.717C72.2869 101.127 70.9617 100.454 70.0704 99.7695L68.9798 101.693L67.8892 101.28L69.1909 99.1087C68.4873 98.3298 68.0182 97.48 68.0182 96.6893C68.0182 95.4266 68.8391 94.8247 70.0353 94.8247H73.3424V100.478ZM49.6533 100.678C48.4923 100.678 47.3899 99.6869 47.3899 98.1881C47.3899 96.7011 48.3515 95.7098 49.665 95.7098C50.2396 95.7098 50.7439 95.9458 51.3889 96.4887L52.0456 95.521C51.3889 94.8719 50.5445 94.6005 49.665 94.6005C47.6714 94.6005 46.2172 95.9458 46.2172 98.1881C46.2172 100.442 47.6714 101.729 49.6533 101.729C50.6149 101.729 51.4006 101.422 52.0925 100.867L51.4827 99.9465C50.9785 100.407 50.4507 100.678 49.6533 100.678ZM23.0089 95.8986H23.8885V101.481H25.0025V95.8986H28.1924V101.481H29.3651V94.8247H23.0089V95.8986ZM36.5891 98.1645C36.5891 96.7129 35.604 95.639 34.2671 95.639C32.8481 95.639 31.9216 96.7129 31.9216 98.1645C31.9216 99.5689 32.8481 100.678 34.2671 100.678C35.604 100.678 36.5891 99.5689 36.5891 98.1645ZM37.7384 98.1645C37.7384 100.301 36.2959 101.752 34.2671 101.752C32.1914 101.752 30.7606 100.301 30.7606 98.1645C30.7606 96.0285 32.1914 94.5769 34.2671 94.5769C36.2959 94.5769 37.7384 96.0285 37.7384 98.1645ZM43.6372 97.6807H40.3184V94.8247H39.1925V101.481H40.3184V98.8254H43.6372V101.481H44.7747V94.8247H43.6372V97.6807ZM18.0952 95.8278C16.9342 95.8278 16.8052 96.5123 16.8052 96.9844C16.8052 98.0583 17.8841 98.5776 20.1592 98.5776V95.8278H18.0952ZM18.0717 94.8247H21.285V101.481H20.1592V99.5689C19.4907 99.5453 18.5525 99.4981 17.9545 99.3565L16.5237 101.693L15.4565 101.28L16.8755 98.9788C16.0664 98.5776 15.5621 97.9049 15.5621 96.9844C15.5621 95.8986 16.2071 94.8247 18.0717 94.8247ZM94.2638 29.9521C94.2638 13.4065 80.9416 0 64.5 0C48.0935 0 34.7948 13.3475 34.7362 29.8341L56.631 18.8823C56.5137 18.7997 56.3965 18.7053 56.2792 18.5991C56.2088 18.5283 56.1736 18.4339 56.1854 18.3395C56.1971 18.2333 56.244 18.1388 56.3261 18.0916C58.1438 16.8643 59.8091 15.4363 61.3102 13.8431C61.5682 13.5717 61.8614 13.2766 62.1311 13.017L62.1428 13.0052C62.4595 12.6984 62.8582 12.4977 63.2921 12.3915C64.6994 12.0847 68.0064 11.3058 70.176 10.5505C71.079 10.2319 72.0406 10.1847 72.9671 10.4089C73.1078 10.4443 73.2368 10.4797 73.3658 10.5151L80.6719 6.85665C80.7305 6.83304 80.7892 6.83304 80.8361 6.86845C80.883 6.89205 80.9182 6.95106 80.9182 7.01007V9.37036C80.9182 9.44116 80.883 9.50017 80.8244 9.52378L76.2155 11.6126C76.8488 11.9431 77.4938 12.3207 78.1036 12.7692L81.5397 11.3412C81.5984 11.3058 81.6687 11.3294 81.7156 11.3766L83.3575 13.0288C83.3926 13.0642 83.4161 13.1232 83.4044 13.1822C83.3926 13.2294 83.3575 13.2766 83.2988 13.3002L80.0973 14.4922C82.1964 16.6401 83.4278 19.3072 83.85 21.1246C85.6912 28.2291 83.6272 44.0902 74.2688 58.252C74.2688 58.2638 74.2688 58.2638 74.2688 58.2638C85.9023 54.1923 94.2638 43.0635 94.2638 29.9521ZM75.4064 28.3589C73.3072 26.9427 71.3956 25.3023 69.6717 23.4731C69.2026 22.9774 68.5459 22.6942 67.8657 22.6942H61.4626C60.7355 22.6942 60.0202 22.529 59.3752 22.2221L34.7714 31.4037L34.7596 31.4037C35.2756 42.2492 41.5145 51.5724 50.5094 56.3992C63.2569 53.2482 73.2251 43.0281 76.0983 30.1055C76.239 29.4328 75.9693 28.7365 75.4064 28.3589ZM62.4594 18.8351C62.4243 18.7879 62.3891 18.7525 62.3656 18.7053C62.1194 18.2687 62.0138 17.8438 62.0373 17.5252C62.0373 17.5252 62.0373 17.5252 62.049 17.5252C62.0959 17.0531 62.4946 16.6991 62.9637 16.6991H65.0043C65.4382 16.6991 65.8604 16.6991 66.2825 16.6991C66.5757 16.6991 66.8455 16.8997 66.9275 17.1947C66.9979 17.4662 67.0331 17.7494 67.0331 18.0444C67.0331 18.3277 66.9979 18.6109 66.9275 18.8823C66.8455 19.1774 66.5757 19.3898 66.2825 19.3898C65.4382 19.3898 64.5352 19.3898 63.7025 19.3898C63.2335 19.3898 62.7761 19.1892 62.4594 18.8351Z" fill="#E41D32"/>
<path d="M76.2625 77.9486C76.2625 80.3443 75.1249 82.327 72.0406 82.327C68.8977 82.327 67.7602 80.3443 67.7602 77.9486V76.7803C67.7602 74.361 68.8977 72.3783 72.0406 72.3783C75.1249 72.3783 76.2625 74.361 76.2625 76.7803V77.9486ZM72.0406 69.546C67.3145 69.546 64.6055 72.6262 64.6055 76.7803V77.9486C64.6055 82.1264 67.3145 85.2301 72.0406 85.2301C76.6729 85.2301 79.4054 82.1264 79.4054 77.9486V76.7803C79.4054 72.6262 76.6729 69.546 72.0406 69.546ZM125.939 77.3113H121.565C120.521 77.3113 119.337 76.5797 119.313 74.9156C119.313 73.3225 120.322 72.5554 121.565 72.5554H125.939V77.3113ZM121.694 69.9C118.961 69.9 116.299 71.564 116.299 74.9156C116.299 76.7095 117.109 78.0548 118.328 78.8691C118.574 79.0226 119.067 79.294 119.853 79.4946C118.094 81.9139 116.381 82.4804 115.514 82.7164L116.323 85.1593C119.595 84.9233 121.436 82.3742 122.996 79.766H125.939V84.8761H129V69.9H121.694ZM93.2435 77.9486C93.2435 79.707 92.7393 82.4568 89.7254 82.4568C88.2125 82.4568 86.1837 82.0201 85.4332 80.6512V74.597C86.2306 73.4995 87.6731 72.4019 89.7254 72.4019C92.4813 72.4019 93.2435 74.7386 93.2435 76.8865V77.9486ZM89.7254 69.605C88.1305 69.605 86.1837 70.3603 85.2455 71.505V69.9H82.3724V89.6085H85.4332V83.8612C86.4417 85.1121 88.365 85.2891 89.7254 85.2891C93.5954 85.2891 96.2809 83.1531 96.2809 77.9722V76.8865C96.2809 71.5286 93.2905 69.605 89.7254 69.605ZM51.0605 72.579H55.8687V84.8761H58.9295V72.579H63.5384L64.4179 69.9H51.0605V72.579ZM102.403 80.3561V69.6286L99.3769 70.1597V84.8761H102.403L109.615 74.1132V84.8761H112.629V69.7584L109.193 70.2069L102.403 80.3561ZM27.5474 76.9691L32.4376 70.2069L29.4237 69.6286L24.9205 75.9424H22.7744V69.6286L19.7135 70.1833V84.8761H22.7744V78.6921H25.1315C26.574 81.3829 28.8256 85.0531 32.0624 85.1357L32.9419 82.4568C32.5666 82.3388 32.2383 82.2089 31.9099 82.0555C29.7638 80.9698 28.5676 78.8455 27.5474 76.9691ZM12.4544 75.2579H6.966C5.031 75.2579 3.56509 73.8771 3.56509 71.8119C3.56509 69.6994 5.031 68.3776 6.966 68.3776H12.4544V75.2579ZM0.199364 71.8119C0.199364 74.8212 2.33373 77.4884 5.35936 77.9958C3.95209 80.0965 2.29855 81.7959 0 82.4096L0.891273 85.1357C4.72609 85.0059 6.95427 81.2884 8.85409 78.1847H12.4544V84.8761H15.5621V65.4273H6.966C2.99045 65.4273 0.222818 68.2006 0.199364 71.8119ZM45.2438 70.2069L48.6799 69.7584V84.8761H45.6543V74.1132L38.442 84.8761H35.4281V70.1597L38.442 69.6286V80.3561L45.2438 70.2069Z" fill="black"/>
</svg>
