<svg width="58" height="58" viewBox="0 0 58 58" fill="none" xmlns="http://www.w3.org/2000/svg">
<path d="M29 58C45.0163 58 58 45.0163 58 29C58 12.9837 45.0163 0 29 0C12.9837 0 0 12.9837 0 29C0 45.0163 12.9837 58 29 58Z" fill="#2B2A29"/>
<path d="M52.1376 29.2401C52.1376 42.0169 41.7788 52.3763 29.0014 52.3763C16.224 52.3763 5.86523 42.0169 5.86523 29.2401C5.86523 16.4627 16.224 6.10391 29.0014 6.10391C41.7788 6.10391 52.1376 16.4627 52.1376 29.2401Z" stroke="#FEFEFE" stroke-width="0.44" stroke-miterlimit="10"/>
<path d="M29.0013 6.10391C29.0013 6.10391 28.6759 2.54735 25.8896 2.91855C23.1352 3.28569 24.2656 6.53485 26.1477 6.27849C28.4787 5.96065 26.7724 3.70793 25.8043 5.05121" stroke="#FEFEFE" stroke-width="0.44" stroke-miterlimit="10" stroke-linecap="round" stroke-linejoin="round"/>
<path d="M24.6045 3.50955C23.6371 4.30821 23.2815 6.92459 21.846 7.23199C20.976 7.41817 19.736 6.27441 20.8664 5.37657C21.9962 4.47873 23.0188 6.44435 21.5009 6.47509" stroke="#FEFEFE" stroke-width="0.44" stroke-miterlimit="10" stroke-linecap="round" stroke-linejoin="round"/>
<path d="M29 6.10391C29 6.10391 29.3254 2.54735 32.1117 2.91855C34.8661 3.28569 33.7357 6.53485 31.8536 6.27849C29.5226 5.96065 31.2295 3.70793 32.197 5.05121" stroke="#FEFEFE" stroke-width="0.44" stroke-miterlimit="10" stroke-linecap="round" stroke-linejoin="round"/>
<path d="M33.3984 3.50955C34.3659 4.30821 34.7214 6.92459 36.1569 7.23199C37.0269 7.41817 38.267 6.27441 37.1371 5.37657C36.0067 4.47873 34.9847 6.44435 36.502 6.47509" stroke="#FEFEFE" stroke-width="0.44" stroke-miterlimit="10" stroke-linecap="round" stroke-linejoin="round"/>
<path d="M29.0005 6.10393C29.4192 6.10393 29.8351 6.11669 30.2486 6.13815C30.2486 6.12655 30.2515 6.11611 30.2515 6.10393C30.2515 5.36965 29.6866 4.77399 28.99 4.77399C28.2934 4.77399 27.7285 5.36965 27.7285 6.10393C27.7285 6.11669 27.7314 6.12771 27.7314 6.13989C28.1519 6.11727 28.5742 6.10393 29.0005 6.10393V6.10393Z" fill="#FEFEFE" stroke="#FEFEFE" stroke-width="0.25" stroke-miterlimit="22.9256"/>
<path d="M29.3725 4.26471C29.3725 4.74553 29.206 5.13529 29.0007 5.13529C28.7954 5.13529 28.6289 4.74553 28.6289 4.26471C28.6289 3.78447 28.7954 3.39471 29.0007 3.39471C29.206 3.39471 29.3725 3.78447 29.3725 4.26471Z" fill="#FEFEFE" stroke="#FEFEFE" stroke-width="0.25" stroke-miterlimit="22.9256"/>
<path d="M14.129 11.5165C14.129 11.5165 11.5938 9.00158 9.6978 11.0768C7.82382 13.1289 10.7778 14.8915 12.0549 13.485C13.6366 11.7427 10.881 11.1145 11.0034 12.7652" stroke="#FEFEFE" stroke-width="0.44" stroke-miterlimit="10" stroke-linecap="round" stroke-linejoin="round"/>
<path d="M9.09295 12.3557C8.86501 13.5894 10.2744 15.8224 9.3731 16.9801C8.82616 17.6824 7.14067 17.603 7.42951 16.1889C7.71777 14.7749 9.7646 15.6234 8.622 16.6228" stroke="#FEFEFE" stroke-width="0.44" stroke-miterlimit="10" stroke-linecap="round" stroke-linejoin="round"/>
<path d="M14.128 11.5165C14.128 11.5165 12.0905 8.5834 14.4644 7.07656C16.8105 5.5877 18.0332 8.80322 16.426 9.81648C14.436 11.071 14.2956 8.24874 15.8999 8.65532" stroke="#FEFEFE" stroke-width="0.44" stroke-miterlimit="10" stroke-linecap="round" stroke-linejoin="round"/>
<path d="M15.8301 6.70303C17.084 6.69317 19.0392 8.46855 20.3361 7.78125C21.122 7.36481 21.3366 5.69151 19.8941 5.73037C18.4511 5.76865 18.9319 7.93205 20.114 6.98027" stroke="#FEFEFE" stroke-width="0.44" stroke-miterlimit="10" stroke-linecap="round" stroke-linejoin="round"/>
<path d="M14.1284 11.5165C14.4497 11.2473 14.7756 10.9898 15.1062 10.741C15.0987 10.7323 15.0946 10.7213 15.0865 10.7126C14.6144 10.15 13.7989 10.0572 13.2653 10.5049C12.7317 10.9527 12.6818 11.7722 13.154 12.3348C13.1621 12.3441 13.1714 12.3505 13.1795 12.3598C13.4863 12.0727 13.8018 11.7908 14.1284 11.5165Z" fill="#FEFEFE" stroke="#FEFEFE" stroke-width="0.25" stroke-miterlimit="22.9256"/>
<path d="M13.2311 9.86929C13.5403 10.2376 13.6626 10.6424 13.5055 10.7747C13.3483 10.9069 12.9701 10.7149 12.6616 10.3466C12.353 9.97891 12.2295 9.57349 12.3866 9.44125C12.5444 9.30901 12.922 9.50099 13.2311 9.86929V9.86929Z" fill="#FEFEFE" stroke="#FEFEFE" stroke-width="0.25" stroke-miterlimit="22.9256"/>
<path d="M6.21587 25.223C6.21587 25.223 2.65641 24.9255 2.53809 27.7338C2.42151 30.5103 5.81741 29.9616 5.89165 28.0633C5.98387 25.7125 3.46899 27.0025 4.62377 28.188" stroke="#FEFEFE" stroke-width="0.44" stroke-miterlimit="10" stroke-linecap="round" stroke-linejoin="round"/>
<path d="M2.89648 29.1021C3.51476 30.1936 6.03022 30.9987 6.08358 32.4655C6.11664 33.3541 4.77394 34.3766 4.08606 33.1081C3.39876 31.8397 5.5117 31.1738 5.27854 32.6737" stroke="#FEFEFE" stroke-width="0.44" stroke-miterlimit="10" stroke-linecap="round" stroke-linejoin="round"/>
<path d="M6.21636 25.223C6.21636 25.223 2.76942 24.2852 3.61912 21.605C4.45954 18.9567 7.46336 20.6335 6.88336 22.4431C6.1659 24.6836 4.24378 22.6107 5.73438 21.8921" stroke="#FEFEFE" stroke-width="0.44" stroke-miterlimit="10" stroke-linecap="round" stroke-linejoin="round"/>
<path d="M4.42383 20.4421C5.37851 19.6283 8.01693 19.7316 8.56851 18.3721C8.90259 17.5479 7.99199 16.1275 6.91145 17.085C5.83091 18.0415 7.58947 19.3894 7.88353 17.9011" stroke="#FEFEFE" stroke-width="0.44" stroke-miterlimit="10" stroke-linecap="round" stroke-linejoin="round"/>
<path d="M6.21519 25.223C6.28827 24.8101 6.37179 24.4029 6.46517 24.0004C6.45357 23.9975 6.44429 23.9929 6.43211 23.9911C5.70885 23.8635 5.02445 24.3165 4.90323 25.0021C4.78201 25.6888 5.27037 26.3482 5.99421 26.4758C6.00639 26.4776 6.01799 26.477 6.03017 26.4793C6.08005 26.0611 6.14095 25.6424 6.21519 25.223V25.223Z" fill="#FEFEFE" stroke="#FEFEFE" stroke-width="0.25" stroke-miterlimit="22.9256"/>
<path d="M4.46897 24.5375C4.94225 24.621 5.29663 24.8524 5.26183 25.0543C5.22645 25.2573 4.81349 25.353 4.34021 25.2694C3.86693 25.1859 3.51197 24.9545 3.54735 24.7521C3.58331 24.5497 3.99569 24.4545 4.46897 24.5375V24.5375Z" fill="#FEFEFE" stroke="#FEFEFE" stroke-width="0.25" stroke-miterlimit="22.9256"/>
<path d="M8.96396 40.8082C8.96396 40.8082 6.04598 42.8684 7.76046 45.0956C9.4558 47.2984 11.7045 44.6948 10.541 43.1926C9.10084 41.3325 8.0029 43.9367 9.6501 44.1032" stroke="#FEFEFE" stroke-width="0.44" stroke-miterlimit="10" stroke-linecap="round" stroke-linejoin="round"/>
<path d="M8.91602 45.914C10.0917 46.3524 12.5352 45.3525 13.5189 46.4412C14.1151 47.1012 13.7445 48.7473 12.4018 48.2177C11.0603 47.6876 12.251 45.82 13.0363 47.118" stroke="#FEFEFE" stroke-width="0.44" stroke-miterlimit="10" stroke-linecap="round" stroke-linejoin="round"/>
<path d="M8.96427 40.8082C8.96427 40.8082 5.72033 42.3052 4.64907 39.7068C3.58999 37.1374 6.96907 36.4913 7.68827 38.2504C8.57857 40.4277 5.77369 40.0757 6.45345 38.5671" stroke="#FEFEFE" stroke-width="0.44" stroke-miterlimit="10" stroke-linecap="round" stroke-linejoin="round"/>
<path d="M4.51817 38.298C4.72639 37.0609 6.81439 35.4444 6.36257 34.0478C6.08881 33.2015 4.47815 32.6993 4.26645 34.1272C4.05359 35.5546 6.26687 35.4566 5.53549 34.1278" stroke="#FEFEFE" stroke-width="0.44" stroke-miterlimit="10" stroke-linecap="round" stroke-linejoin="round"/>
<path d="M8.96494 40.8082C8.75498 40.4457 8.55778 40.0791 8.36986 39.7114C8.35942 39.7172 8.34898 39.719 8.33854 39.7253C7.70286 40.0925 7.4697 40.8795 7.8177 41.4827C8.16628 42.0865 8.96436 42.2779 9.60062 41.9102C9.61106 41.9038 9.61918 41.8957 9.6302 41.8899C9.39994 41.5367 9.17722 41.1777 8.96494 40.8082Z" fill="#FEFEFE" stroke="#FEFEFE" stroke-width="0.25" stroke-miterlimit="22.9256"/>
<path d="M7.18431 41.4062C7.60075 41.1661 8.02125 41.1156 8.12391 41.2931C8.22715 41.4706 7.97195 41.8093 7.55609 42.05C7.13965 42.2901 6.71915 42.3412 6.61649 42.1631C6.51383 41.9845 6.76845 41.6469 7.18431 41.4062Z" fill="#FEFEFE" stroke="#FEFEFE" stroke-width="0.25" stroke-miterlimit="22.9256"/>
<path d="M21.0884 50.9814C21.0884 50.9814 20.1772 54.4347 22.9224 55.0385C25.6373 55.6365 25.6855 52.1965 23.8289 51.794C21.5304 51.2946 22.3632 53.9951 23.732 53.0636" stroke="#FEFEFE" stroke-width="0.44" stroke-miterlimit="10" stroke-linecap="round" stroke-linejoin="round"/>
<path d="M24.332 54.9237C25.5147 54.5043 26.7437 52.1675 28.1971 52.3688C29.0787 52.4911 29.8525 53.9904 28.4837 54.4475C27.1149 54.9039 26.8266 52.7081 28.2627 53.1976" stroke="#FEFEFE" stroke-width="0.44" stroke-miterlimit="10" stroke-linecap="round" stroke-linejoin="round"/>
<path d="M21.0883 50.9814C21.0883 50.9814 19.5658 54.2126 17.0747 52.9105C14.6126 51.6229 16.7853 48.956 18.4667 49.8417C20.5477 50.9379 18.1732 52.4703 17.7243 50.8776" stroke="#FEFEFE" stroke-width="0.44" stroke-miterlimit="10" stroke-linecap="round" stroke-linejoin="round"/>
<path d="M16.0676 51.9158C15.4325 50.8347 15.9928 48.2536 14.7487 47.4747C13.9952 47.002 12.4385 47.6528 13.1937 48.8824C13.9483 50.1131 15.581 48.615 14.1669 48.0675" stroke="#FEFEFE" stroke-width="0.44" stroke-miterlimit="10" stroke-linecap="round" stroke-linejoin="round"/>
<path d="M21.0866 50.9814C20.6928 50.8376 20.3059 50.6845 19.9254 50.5226C19.9214 50.5342 19.9144 50.5424 19.9109 50.554C19.6592 51.2436 19.9875 51.9964 20.6411 52.2348C21.2965 52.4732 22.0308 52.1072 22.282 51.4164C22.2854 51.4048 22.2866 51.3932 22.2912 51.3816C21.8887 51.2592 21.4862 51.127 21.0866 50.9814Z" fill="#FEFEFE" stroke="#FEFEFE" stroke-width="0.25" stroke-miterlimit="22.9256"/>
<path d="M20.1103 52.5828C20.2739 52.1304 20.5638 51.8224 20.7564 51.892C20.9495 51.9616 20.9722 52.385 20.808 52.8368C20.6433 53.2887 20.3539 53.5978 20.1613 53.5276C19.9676 53.4563 19.9456 53.0346 20.1103 52.5828V52.5828Z" fill="#FEFEFE" stroke="#FEFEFE" stroke-width="0.25" stroke-miterlimit="22.9256"/>
<path d="M36.9141 50.9814C36.9141 50.9814 38.436 54.2126 40.9271 52.9105C43.3909 51.6235 41.2171 48.9572 39.5357 49.8423C37.454 50.9374 39.8286 52.4703 40.2775 50.8776" stroke="#FEFEFE" stroke-width="0.44" stroke-miterlimit="10" stroke-linecap="round" stroke-linejoin="round"/>
<path d="M41.9336 51.9164C42.5699 50.8347 42.009 48.2548 43.2519 47.4747C44.0065 47.0015 45.5621 47.6534 44.8081 48.883C44.0529 50.1126 42.4202 48.615 43.8354 48.0675" stroke="#FEFEFE" stroke-width="0.44" stroke-miterlimit="10" stroke-linecap="round" stroke-linejoin="round"/>
<path d="M36.913 50.9814C36.913 50.9814 37.8236 54.4353 35.0785 55.0391C32.3647 55.6359 32.3154 52.1959 34.1725 51.7934C36.4711 51.2952 35.637 53.9956 34.2694 53.0642" stroke="#FEFEFE" stroke-width="0.44" stroke-miterlimit="10" stroke-linecap="round" stroke-linejoin="round"/>
<path d="M33.6695 54.9237C32.488 54.5038 31.2579 52.1669 29.8044 52.3694C28.9234 52.4917 28.1491 53.9905 29.5179 54.4475C30.8872 54.9051 31.1755 52.7087 29.7394 53.1976" stroke="#FEFEFE" stroke-width="0.44" stroke-miterlimit="10" stroke-linecap="round" stroke-linejoin="round"/>
<path d="M36.9129 50.9814C36.5191 51.1247 36.1241 51.2552 35.7285 51.3758C35.7332 51.3874 35.7332 51.3984 35.7372 51.4094C35.9884 52.0996 36.7238 52.4656 37.378 52.2272C38.0329 51.9889 38.36 51.2372 38.1088 50.5464C38.1036 50.5348 38.0972 50.5255 38.0932 50.5139C37.7057 50.6786 37.3131 50.8358 36.9129 50.9814V50.9814Z" fill="#FEFEFE" stroke="#FEFEFE" stroke-width="0.25" stroke-miterlimit="22.9256"/>
<path d="M37.1938 52.8368C37.0291 52.3856 37.0523 51.9628 37.2455 51.892C37.4374 51.8218 37.7274 52.1315 37.8922 52.5834C38.0557 53.0346 38.0337 53.4574 37.8405 53.5276C37.6468 53.5978 37.358 53.2886 37.1938 52.8368V52.8368Z" fill="#FEFEFE" stroke="#FEFEFE" stroke-width="0.25" stroke-miterlimit="22.9256"/>
<path d="M49.0371 40.8082C49.0371 40.8082 52.2799 42.3052 53.3517 39.7068C54.412 37.1374 51.0323 36.4924 50.3143 38.2504C49.4228 40.4271 52.2265 40.0756 51.5474 38.5671" stroke="#FEFEFE" stroke-width="0.44" stroke-miterlimit="10" stroke-linecap="round" stroke-linejoin="round"/>
<path d="M53.4833 38.2991C53.2745 37.0608 51.1871 35.4449 51.6377 34.0483C51.9115 33.2009 53.5222 32.7004 53.735 34.1272C53.9467 35.5546 51.7335 35.4571 52.4654 34.1278" stroke="#FEFEFE" stroke-width="0.44" stroke-miterlimit="10" stroke-linecap="round" stroke-linejoin="round"/>
<path d="M49.0373 40.8082C49.0373 40.8082 51.9553 42.869 50.2408 45.0967C48.5455 47.2973 46.2957 44.6948 47.4597 43.192C48.9004 41.3331 49.9978 43.9379 48.3512 44.1038" stroke="#FEFEFE" stroke-width="0.44" stroke-miterlimit="10" stroke-linecap="round" stroke-linejoin="round"/>
<path d="M49.0849 45.9145C47.9098 46.3524 45.4663 45.3525 44.4832 46.4417C43.8863 47.1018 44.2564 48.7472 45.5991 48.2183C46.9424 47.6882 45.7505 45.8206 44.9651 47.118" stroke="#FEFEFE" stroke-width="0.44" stroke-miterlimit="10" stroke-linecap="round" stroke-linejoin="round"/>
<path d="M49.0359 40.8082C48.8265 41.1718 48.6079 41.5256 48.3828 41.8725C48.3933 41.8783 48.4008 41.8864 48.4107 41.8916C49.0469 42.2599 49.845 42.0674 50.193 41.4642C50.5422 40.8604 50.309 40.0739 49.6727 39.7068C49.6617 39.701 49.6507 39.6981 49.6397 39.6917C49.4494 40.0669 49.2493 40.4405 49.0359 40.8082V40.8082Z" fill="#FEFEFE" stroke="#FEFEFE" stroke-width="0.25" stroke-miterlimit="22.9256"/>
<path d="M50.4439 42.05C50.028 41.8099 49.774 41.4712 49.8761 41.2931C49.9781 41.1156 50.3987 41.1667 50.8157 41.4074C51.2315 41.6475 51.4856 41.9856 51.3835 42.1631C51.2797 42.3417 50.8603 42.2901 50.4439 42.05Z" fill="#FEFEFE" stroke="#FEFEFE" stroke-width="0.25" stroke-miterlimit="22.9256"/>
<path d="M51.7851 25.223C51.7851 25.223 55.2309 24.2857 54.3812 21.6061C53.5425 18.9561 50.5387 20.6341 51.1187 22.4437C51.835 24.6836 53.7577 22.6119 52.2671 21.8921" stroke="#FEFEFE" stroke-width="0.44" stroke-miterlimit="10" stroke-linecap="round" stroke-linejoin="round"/>
<path d="M53.5776 20.4426C52.6224 19.6283 49.9845 19.7321 49.4318 18.3726C49.0965 17.5473 50.0089 16.1286 51.0888 17.085C52.1688 18.042 50.4102 19.3905 50.1167 17.9011" stroke="#FEFEFE" stroke-width="0.44" stroke-miterlimit="10" stroke-linecap="round" stroke-linejoin="round"/>
<path d="M51.7852 25.223C51.7852 25.223 55.3452 24.9261 55.4629 27.7344C55.5789 30.5103 52.1825 29.9622 52.1088 28.0633C52.0172 25.7131 54.532 27.0031 53.3773 28.1886" stroke="#FEFEFE" stroke-width="0.44" stroke-miterlimit="10" stroke-linecap="round" stroke-linejoin="round"/>
<path d="M55.1051 29.1032C54.4862 30.1936 51.9713 30.9992 51.9186 32.4655C51.8855 33.354 53.227 34.3771 53.9149 33.1087C54.6034 31.8396 52.4904 31.1744 52.723 32.6737" stroke="#FEFEFE" stroke-width="0.44" stroke-miterlimit="10" stroke-linecap="round" stroke-linejoin="round"/>
<path d="M51.7851 25.223C51.8576 25.6366 51.9179 26.0472 51.9678 26.4579C51.98 26.4555 51.991 26.4579 52.002 26.455C52.7258 26.3279 53.2136 25.6679 53.0924 24.9818C52.9723 24.295 52.2879 23.8421 51.5641 23.9702C51.5519 23.9726 51.5421 23.9778 51.5293 23.9789C51.6256 24.3896 51.7114 24.8043 51.7851 25.223V25.223Z" fill="#FEFEFE" stroke="#FEFEFE" stroke-width="0.25" stroke-miterlimit="22.9256"/>
<path d="M53.6604 25.2694C53.1871 25.3529 52.7753 25.2567 52.7388 25.0542C52.7034 24.853 53.0589 24.6221 53.5322 24.5375C54.0055 24.4545 54.4173 24.5502 54.4527 24.7521C54.4886 24.9556 54.1342 25.1859 53.6604 25.2694Z" fill="#FEFEFE" stroke="#FEFEFE" stroke-width="0.25" stroke-miterlimit="22.9256"/>
<path d="M43.8728 11.5171C43.8728 11.5171 45.9098 8.584 43.5364 7.07716C41.1903 5.58656 39.9682 8.80324 41.576 9.81592C43.5642 11.0722 43.7052 8.24934 42.1003 8.65592" stroke="#FEFEFE" stroke-width="0.44" stroke-miterlimit="10" stroke-linecap="round" stroke-linejoin="round"/>
<path d="M42.1727 6.70249C40.917 6.69321 38.9636 8.46859 37.6667 7.78187C36.879 7.36485 36.6656 5.69213 38.1075 5.73041C39.5505 5.76985 39.0703 7.93267 37.8877 6.98031" stroke="#FEFEFE" stroke-width="0.44" stroke-miterlimit="10" stroke-linecap="round" stroke-linejoin="round"/>
<path d="M43.873 11.5171C43.873 11.5171 46.4094 9.00159 48.3048 11.0774C50.1776 13.1289 47.2243 14.8921 45.946 13.485C44.3655 11.7438 47.121 11.1145 46.9987 12.7652" stroke="#FEFEFE" stroke-width="0.44" stroke-miterlimit="10" stroke-linecap="round" stroke-linejoin="round"/>
<path d="M48.9089 12.3557C49.1362 13.5894 47.7274 15.823 48.6287 16.9801C49.1751 17.6819 50.8606 17.6036 50.5723 16.1895C50.2835 14.7749 48.2372 15.6234 49.3787 16.6222" stroke="#FEFEFE" stroke-width="0.44" stroke-miterlimit="10" stroke-linecap="round" stroke-linejoin="round"/>
<path d="M43.8728 11.517C44.1941 11.7873 44.5039 12.0634 44.8066 12.3458C44.8147 12.336 44.824 12.3308 44.8304 12.3215C45.3037 11.7589 45.2532 10.9393 44.7196 10.4922C44.1854 10.0432 43.3705 10.136 42.8984 10.6992C42.8903 10.7091 42.8857 10.7195 42.877 10.7288C43.2145 10.9811 43.5469 11.2438 43.8728 11.517V11.517Z" fill="#FEFEFE" stroke="#FEFEFE" stroke-width="0.25" stroke-miterlimit="22.9256"/>
<path d="M45.3381 10.3472C45.0296 10.7149 44.6514 10.9063 44.4937 10.7747C44.3371 10.643 44.4606 10.2376 44.7697 9.86871C45.0783 9.50099 45.4553 9.30901 45.6131 9.44125C45.7708 9.57407 45.6467 9.97891 45.3381 10.3472V10.3472Z" fill="#FEFEFE" stroke="#FEFEFE" stroke-width="0.25" stroke-miterlimit="22.9256"/>
<path d="M36.015 16.787L35.2656 17.6819V25.5328C35.2656 25.7822 35.283 26.0356 35.3178 26.2926C35.3526 26.5489 35.4083 26.7746 35.4843 26.9758C35.5608 27.1771 35.6548 27.3435 35.7656 27.4752C35.8764 27.6069 36.0086 27.673 36.1611 27.673C36.508 27.673 36.9934 27.2293 37.6181 26.3407C37.7289 26.6464 37.8327 26.8824 37.9301 27.0483C38.0276 27.2154 38.1279 27.3401 38.2323 27.4236C38.3361 27.5065 38.4574 27.5552 38.596 27.5692C38.7352 27.5831 38.9016 27.59 39.0959 27.59C39.8592 27.59 40.5459 27.4375 41.1567 27.1318C41.4896 26.8958 41.6978 26.6945 41.7808 26.5281C41.8643 26.3616 41.9263 26.154 41.9681 25.904L41.989 25.7578C41.6004 26.0496 41.1428 26.2543 40.615 26.372C40.0877 26.4898 39.5814 26.5489 39.0959 26.5489C38.8738 26.5489 38.6691 26.4312 38.4817 26.1951C38.2944 25.9591 38.201 25.6818 38.201 25.3628C38.201 24.9742 38.3118 24.2661 38.5339 23.2395C38.5339 23.0591 38.4991 22.9692 38.4295 22.9692C38.3048 22.9692 38.2213 22.997 38.1801 23.0521C38.0966 23.2603 37.9997 23.5451 37.8884 23.9059C37.7776 24.2661 37.6459 24.6239 37.4928 24.9777C37.3403 25.3315 37.1634 25.6401 36.9621 25.904C36.7609 26.1673 36.5358 26.2995 36.2858 26.2995C36.1055 26.2995 36.0086 26.1743 35.9941 25.9249L36.7023 16.787H36.015V16.787Z" fill="#FFED00"/>
<path d="M31.2491 22.9066L30.6041 23.1983C30.5206 23.9471 30.3054 24.5509 29.9586 25.0091C29.6117 25.4667 29.2162 25.7097 28.7725 25.7375C28.5782 25.7097 28.4807 25.4806 28.4807 25.0502C28.4807 24.9534 28.4877 24.8008 28.5016 24.5926C28.5155 24.3844 28.5295 24.1692 28.5434 23.9471C28.5573 23.7249 28.5712 23.5173 28.5846 23.323C28.5991 23.1287 28.606 22.9901 28.606 22.9066L28.0022 23.3642C27.9326 23.642 27.8427 23.9575 27.7314 24.3113C27.6206 24.6651 27.5092 24.9395 27.3985 25.1338C27.2877 25.3281 27.1554 25.491 27.0029 25.6227C26.8504 25.7544 26.6352 25.8692 26.3579 25.9661C26.0801 25.9661 25.8997 25.9075 25.8168 25.7892C25.7333 25.6714 25.6915 25.4736 25.6915 25.1964L25.7959 23.5933C25.7402 23.635 25.6637 23.6872 25.5668 23.7493C25.47 23.8119 25.3864 23.8781 25.3168 23.9471C25.0396 24.5717 24.9004 25.2237 24.9004 25.904C24.9004 26.3895 24.9526 26.7815 25.057 27.0797C25.1608 27.3784 25.3934 27.5274 25.7542 27.5274C25.8789 27.5274 26.0215 27.4891 26.181 27.4132C26.3405 27.3366 26.4966 27.2461 26.6491 27.1423C26.8016 27.0385 26.9403 26.941 27.0655 26.8511C27.1902 26.7607 27.2877 26.6945 27.3567 26.6534C27.3845 26.792 27.4715 26.9584 27.6171 27.1527C27.7627 27.347 27.9814 27.4445 28.2725 27.4445C28.4256 27.4445 28.588 27.4062 28.762 27.3296C28.9355 27.2531 29.1019 27.1562 29.2614 27.0385C29.4209 26.9202 29.57 26.7989 29.7092 26.6742C29.8478 26.549 29.9586 26.4451 30.0421 26.3616L30.2294 26.6742C30.3681 26.8958 30.4823 27.0727 30.5728 27.2049C30.6627 27.3366 30.7636 27.4375 30.8744 27.5065C30.9852 27.5761 31.1209 27.6208 31.2804 27.6417C31.4399 27.6626 31.6586 27.673 31.9364 27.673C32.1446 27.673 32.3801 27.6278 32.644 27.5379C32.9073 27.4474 33.1573 27.3053 33.3933 27.111C33.6288 26.9167 33.8301 26.6777 33.9965 26.3929C34.1636 26.1082 34.2465 25.7648 34.2465 25.3629C34.1491 25.654 33.8858 25.8796 33.4554 26.0391C33.0256 26.1986 32.5187 26.2787 31.9364 26.2787C31.5617 26.2787 31.3222 26.143 31.2178 25.8727C31.1139 25.6018 31.0617 25.2724 31.0617 24.8838L31.2491 22.9066V22.9066Z" fill="#FFED00"/>
<path d="M20.1139 20.4711C19.7253 20.5546 19.3541 20.7106 19.0003 20.9397C18.6459 21.1683 18.3339 21.4461 18.0636 21.772C17.7927 22.098 17.5741 22.4663 17.4076 22.8752C17.2411 23.2847 17.1582 23.7046 17.1582 24.1344C17.1582 24.6343 17.2377 25.0989 17.3972 25.5293C17.5567 25.9591 17.7892 26.3343 18.0943 26.6533C18.4 26.9723 18.7607 27.2223 19.1772 27.4027C19.593 27.5831 20.0646 27.673 20.5924 27.673C21.0918 27.673 21.5465 27.5796 21.956 27.3922C22.3649 27.2049 22.7221 26.9514 23.0278 26.6324C23.3329 26.3129 23.5689 25.9422 23.7354 25.5188C23.9019 25.0954 23.9848 24.6477 23.9848 24.1761C23.9848 23.7458 23.9262 23.3369 23.8079 22.9483C23.6902 22.5597 23.5202 22.2128 23.2981 21.9072C23.0759 21.6021 22.8161 21.3597 22.518 21.1787C22.2193 20.9983 21.8898 20.9084 21.5291 20.9084C21.7646 21.0192 21.956 21.1787 22.1015 21.3869C22.2471 21.5951 22.3614 21.8208 22.4449 22.0638C22.5278 22.3062 22.5835 22.5527 22.6114 22.8021C22.6392 23.0521 22.6531 23.2742 22.6531 23.4685C22.6531 23.954 22.5278 24.3704 22.2784 24.7173C22.0285 25.0641 21.6747 25.2375 21.2165 25.2375C20.9392 25.2375 20.6927 25.1824 20.4775 25.0711C20.2629 24.9603 20.086 24.8147 19.9468 24.6343C19.8082 24.454 19.7044 24.2527 19.6348 24.0306C19.5652 23.8084 19.531 23.5799 19.531 23.3438C19.531 22.997 19.593 22.667 19.7177 22.3549C19.843 22.0429 20.0095 21.7616 20.2177 21.5116C20.4259 21.2622 20.6689 21.047 20.9462 20.8667C21.224 20.6863 21.5152 20.5546 21.8202 20.4711H20.1139V20.4711Z" fill="#FFED00"/>
<path d="M10.2754 26.3616V29.9164C10.2754 30.2725 10.298 30.6182 10.3438 30.954C10.3897 31.2892 10.4506 31.6222 10.5265 31.9528C10.6031 32.2834 10.6872 32.614 10.7788 32.9446C10.8699 33.2752 10.9615 33.6133 11.0532 33.959C11.0839 34.0199 11.193 34.0814 11.3809 34.1423C11.5694 34.2032 11.8008 34.2339 12.0751 34.2339C12.4411 34.2339 12.7619 34.1475 13.0362 33.9746C13.3111 33.8012 13.5396 33.5779 13.7229 33.303C13.9062 33.0287 14.0431 32.7207 14.1347 32.3802C14.2264 32.0392 14.2722 31.7063 14.2722 31.3809C14.2722 31.1877 14.2571 30.9743 14.2264 30.74C14.1962 30.5062 14.1376 30.2899 14.0512 30.0915C13.9648 29.8932 13.8401 29.7256 13.6771 29.5881C13.5147 29.4512 13.296 29.3822 13.0211 29.3822C12.5838 29.3822 12.0044 29.6977 11.2817 30.3282C11.2515 30.2267 11.2283 30.0817 11.2133 29.8932C11.1982 29.7053 11.1906 29.5098 11.1906 29.3062C11.1906 29.011 11.2005 28.7314 11.2208 28.467C11.2417 28.2025 11.2718 28.0395 11.3124 27.9786C11.3327 27.7959 11.4342 27.6637 11.6175 27.5825C12.2584 27.3789 12.7897 27.231 13.2119 27.1399C13.6342 27.0483 13.9572 27.0025 14.1805 27.0025C14.2925 27.0025 14.412 27.0077 14.539 27.0175C14.6666 27.028 14.7658 27.0581 14.8365 27.1092L15.0047 27.6735C15.1776 27.3383 15.3098 26.9926 15.4014 26.6365C15.4925 26.2804 15.5383 25.9347 15.5383 25.5989C15.5383 25.4666 15.5 25.3524 15.4241 25.2555C15.3475 25.1592 15.2129 25.0699 15.0198 24.9887L10.2754 26.3616V26.3616ZM13.5396 31.6094C13.5193 31.9557 13.4207 32.2074 13.2427 32.3646C13.0646 32.5223 12.7822 32.6012 12.3959 32.6012C11.9684 32.6012 11.6633 32.5252 11.4806 32.3727C11.2974 32.2196 11.2057 31.9406 11.2057 31.5334C11.2057 30.8113 11.6024 30.45 12.3959 30.45C12.7926 30.45 13.1075 30.613 13.3413 30.9383L13.5396 31.6094V31.6094ZM16.3619 31.2133C15.8132 31.3351 15.3504 31.6604 14.974 32.1894C14.7199 32.5351 14.5923 32.9063 14.5923 33.303C14.5923 33.5878 14.6486 33.789 14.7605 33.9056C14.8725 34.0228 15.0401 34.0814 15.264 34.0814C15.5789 34.0814 15.8335 33.9996 16.0267 33.8372C16.1589 33.7357 16.2859 33.6313 16.4077 33.5246C16.5301 33.4178 16.6467 33.2978 16.7586 33.1655C16.7998 33.4097 16.8578 33.6005 16.9344 33.738C17.0104 33.8749 17.102 33.977 17.2087 34.0431C17.3154 34.1092 17.4355 34.1475 17.5672 34.1573C17.7 34.1678 17.8421 34.173 17.9946 34.173H18.0555C18.6251 34.173 19.1036 34.0529 19.4899 33.814C19.8761 33.5756 20.0948 33.1609 20.1458 32.571C19.7897 32.7845 19.4464 32.9393 19.1158 33.0362C18.7852 33.1331 18.483 33.1812 18.2081 33.1812C18.0758 33.1812 17.9691 33.1406 17.8879 33.0588C17.6843 32.8558 17.5828 32.6064 17.5828 32.3112V31.2742L16.9118 31.7469C16.9118 31.3907 16.7285 31.2133 16.3619 31.2133V31.2133ZM15.63 33.1963C15.5691 33.2166 15.5128 33.227 15.4618 33.227C15.3811 33.227 15.3301 33.1864 15.3098 33.1046C15.3098 32.9927 15.3452 32.8738 15.4165 32.7462C15.4879 32.6192 15.5714 32.4997 15.6682 32.3878C15.7645 32.2758 15.8718 32.1795 15.9884 32.0978C16.1056 32.0166 16.21 31.9655 16.301 31.9452C16.4234 31.8942 16.5197 31.8692 16.591 31.8692C16.703 31.8692 16.7586 31.9249 16.7586 32.0369C16.7586 32.1389 16.7134 32.2555 16.6218 32.3878C16.2656 32.8146 15.935 33.0843 15.63 33.1963V33.1963ZM22.0071 31.5792L21.0002 30.7707V33.9132C21.0002 34.1167 20.995 34.3632 20.9845 34.6532C20.9747 34.9432 20.9468 35.246 20.901 35.5609C20.8552 35.8765 20.7838 36.1943 20.6876 36.5145C20.5907 36.8352 20.4608 37.1223 20.2984 37.3763C20.1354 37.631 19.9324 37.8369 19.6882 37.9941C19.444 38.1518 19.1488 38.2307 18.8031 38.2307C18.6303 38.2307 18.4551 38.2052 18.2771 38.1547C18.099 38.1037 17.9337 38.03 17.7812 37.9331C17.6286 37.8369 17.4964 37.722 17.3845 37.5904C17.2725 37.4581 17.1965 37.3154 17.1554 37.1629C17.0945 37.3154 17.0637 37.4987 17.0637 37.7122C17.0637 38.2005 17.2139 38.5717 17.5138 38.8258C17.8142 39.0804 18.2388 39.2074 18.7881 39.2074C19.3576 39.2074 19.8048 39.0549 20.1308 38.7498C20.4561 38.4441 20.7177 38.0248 20.9161 37.4906C21.1144 36.957 21.2693 36.3341 21.3812 35.6218C21.4932 34.9102 21.6208 34.1475 21.7629 33.3337C21.7629 33.2322 21.8087 33.0948 21.9003 32.9214C21.9914 32.7491 22.101 32.5809 22.228 32.4185C22.3551 32.2555 22.4948 32.1157 22.648 31.9986C22.7999 31.882 22.9374 31.8234 23.0598 31.8234C23.2123 31.8234 23.3445 31.8895 23.4565 32.0218C23.5684 32.154 23.6241 32.3216 23.6241 32.5252C23.6241 32.6981 23.5783 32.8581 23.4866 33.0055C23.395 33.1534 23.2836 33.227 23.1514 33.227C23.1311 33.227 23.0313 33.2114 22.8539 33.1812C22.6758 33.1505 22.4699 33.0843 22.2356 32.9828L21.9914 33.2572C22.1033 33.4306 22.2512 33.6005 22.4339 33.7682C22.6172 33.9364 22.7901 34.0199 22.953 34.0199C23.1259 34.0199 23.2807 33.9665 23.4182 33.8598C23.5551 33.7531 23.6722 33.6185 23.7691 33.4555C23.8654 33.2931 23.9396 33.1174 23.9901 32.9295C24.0411 32.741 24.0666 32.571 24.0666 32.4185C24.0666 32.2457 24.0487 32.0775 24.0133 31.9145C23.9773 31.7521 23.9216 31.6071 23.8451 31.4801C23.7691 31.353 23.6647 31.251 23.5325 31.175C23.4002 31.0984 23.2425 31.0607 23.0598 31.0607C22.8765 31.0607 22.6833 31.1216 22.4798 31.2434C22.2762 31.3658 22.1184 31.4777 22.0071 31.5792V31.5792ZM25.5619 31.1367C25.2261 31.4522 24.954 31.7469 24.7452 32.0218C24.537 32.2961 24.4326 32.6372 24.4326 33.0437C24.4326 33.3181 24.5016 33.5756 24.6385 33.814C24.776 34.0529 25.0022 34.173 25.3177 34.173C25.5311 34.173 25.7446 34.0993 25.9586 33.9514C26.172 33.8041 26.3675 33.6185 26.5456 33.3946C26.7236 33.1708 26.8686 32.9295 26.9806 32.6696C27.0925 32.4104 27.1482 32.1691 27.1482 31.9452C27.1482 31.6807 27.0641 31.4545 26.8965 31.2666C26.7288 31.0781 26.4922 30.9842 26.1871 30.9842C26.1361 30.9842 26.0624 30.9917 25.9656 31.0074C25.8693 31.0224 25.8008 31.0352 25.7602 31.0451L25.5619 31.1367ZM26.3089 32.5096C26.2683 32.6116 26.2022 32.7311 26.1106 32.868C26.0195 33.0055 25.8565 33.1099 25.6228 33.1812C25.2974 33.1812 25.1344 33.0084 25.1344 32.6627C25.1344 32.52 25.157 32.3727 25.2034 32.2196C25.2487 32.0676 25.3102 31.9301 25.3861 31.8078C25.4627 31.686 25.5491 31.5868 25.6454 31.5108C25.7423 31.4342 25.8467 31.396 25.9586 31.396C26.2637 31.396 26.4156 31.5995 26.4156 32.0061C26.4156 32.1186 26.4058 32.2045 26.3855 32.266C26.3652 32.3269 26.3449 32.3982 26.3246 32.4794L26.3089 32.5096ZM28.7501 30.5874C28.557 30.6692 28.3813 30.7858 28.2241 30.9383C28.0663 31.0909 27.9289 31.2689 27.8117 31.4725C27.6945 31.6755 27.6058 31.8942 27.5449 32.1285C27.484 32.3622 27.4533 32.6012 27.4533 32.8454C27.4533 32.9881 27.466 33.1377 27.4915 33.2955C27.5171 33.4532 27.56 33.5982 27.6238 33.7305C27.6847 33.8627 27.7688 33.9717 27.8755 34.0582C27.9845 34.1446 28.1197 34.1881 28.285 34.1881C28.4781 34.1881 28.6689 34.1115 28.8545 33.959C29.0372 33.8064 29.1724 33.6539 29.2536 33.5014C29.2536 33.8679 29.2002 34.2235 29.0935 34.5697C28.9868 34.9154 28.8342 35.2228 28.6359 35.4925C28.4375 35.7616 28.1957 35.9803 27.9109 36.1485C27.6261 36.3161 27.3007 36.4002 26.9347 36.4002C26.8124 36.4002 26.6958 36.3648 26.5838 36.2935C26.4719 36.2221 26.3652 36.138 26.2637 36.0418C26.1616 35.9449 26.0676 35.8509 25.9812 35.7593C25.8948 35.6677 25.8107 35.6015 25.7295 35.5609C25.7602 36.1404 25.867 36.5504 26.0497 36.7894C26.2329 37.0283 26.5432 37.1478 26.9806 37.1478C27.4277 37.1478 27.8297 37.0382 28.1858 36.8195C28.5413 36.6009 28.8441 36.3161 29.0906 35.9652C29.3377 35.6143 29.5256 35.2251 29.6549 34.7982C29.7849 34.3708 29.8487 33.9491 29.8487 33.5321C29.8487 33.1458 29.8231 32.7717 29.7721 32.4104C29.7216 32.0496 29.6352 31.6709 29.5128 31.2742L28.9636 31.8385C28.9636 31.9098 28.9537 31.9939 28.9334 32.0902C28.9131 32.1871 28.8876 32.2863 28.8569 32.3878C28.8261 32.4893 28.7931 32.5838 28.7577 32.6696C28.7223 32.7566 28.6892 32.8204 28.6585 32.8605C28.5263 33.0234 28.3992 33.1046 28.2774 33.1046C28.2264 33.1046 28.1806 33.0843 28.14 33.0437C28.0483 33.013 28.0025 32.8303 28.0025 32.4945C28.0025 32.4336 28.0176 32.3443 28.0483 32.2277C28.0791 32.1105 28.122 31.991 28.1783 31.8692C28.2339 31.7469 28.2977 31.6425 28.3691 31.556C28.4398 31.4702 28.521 31.4267 28.6127 31.4267C28.7043 31.4267 28.7757 31.4824 28.8261 31.5943C29.05 31.4012 29.1822 31.2614 29.2228 31.175C29.2634 31.0886 29.2942 31.0097 29.3145 30.9383C29.2333 30.7046 29.0448 30.5874 28.7501 30.5874V30.5874ZM32.3659 31.2133C31.8166 31.3351 31.3538 31.6604 30.9773 32.1894C30.7233 32.5351 30.5963 32.9063 30.5963 33.303C30.5963 33.5878 30.652 33.789 30.7639 33.9056C30.8758 34.0228 31.0435 34.0814 31.2673 34.0814C31.5823 34.0814 31.8369 33.9996 32.03 33.8372C32.1623 33.7357 32.2893 33.6313 32.4117 33.5246C32.5335 33.4178 32.6506 33.2978 32.7626 33.1655C32.8032 33.4097 32.8618 33.6005 32.9377 33.738C33.0143 33.8749 33.1059 33.977 33.2127 34.0431C33.3194 34.1092 33.4389 34.1475 33.5711 34.1573C33.7033 34.1678 33.8454 34.173 33.998 34.173H34.0595C34.629 34.173 35.1064 34.0529 35.4932 33.814C35.8795 33.5756 36.0982 33.1609 36.1492 32.571C35.7931 32.7845 35.4497 32.9393 35.1197 33.0362C34.7891 33.1331 34.4863 33.1812 34.212 33.1812C34.0798 33.1812 33.9725 33.1406 33.8913 33.0588C33.6877 32.8558 33.5862 32.6064 33.5862 32.3112V31.2742L32.9151 31.7469C32.9151 31.3907 32.7318 31.2133 32.3659 31.2133V31.2133ZM31.6333 33.1963C31.5724 33.2166 31.5167 33.227 31.4657 33.227C31.3845 33.227 31.3335 33.1864 31.3132 33.1046C31.3132 32.9927 31.3485 32.8738 31.4199 32.7462C31.4912 32.6192 31.5753 32.4997 31.6716 32.3878C31.7685 32.2758 31.8752 32.1795 31.9918 32.0978C32.1089 32.0166 32.2133 31.9655 32.305 31.9452C32.4268 31.8942 32.5236 31.8692 32.595 31.8692C32.7063 31.8692 32.7626 31.9249 32.7626 32.0369C32.7626 32.1389 32.7168 32.2555 32.6251 32.3878C32.269 32.8146 31.9384 33.0843 31.6333 33.1963V33.1963ZM38.0104 31.5792L37.0035 30.7707V33.9132C37.0035 34.1167 36.9983 34.3632 36.9885 34.6532C36.978 34.9432 36.9502 35.246 36.9044 35.5609C36.8585 35.8765 36.7878 36.1943 36.6909 36.5145C36.5941 36.8352 36.4647 37.1223 36.3017 37.3763C36.1393 37.631 35.9358 37.8369 35.6916 37.9941C35.4474 38.1518 35.1528 38.2307 34.8071 38.2307C34.6337 38.2307 34.4585 38.2052 34.2804 38.1547C34.1024 38.1037 33.9371 38.03 33.7845 37.9331C33.632 37.8369 33.4998 37.722 33.3878 37.5904C33.2759 37.4581 33.1999 37.3154 33.1587 37.1629C33.0978 37.3154 33.0677 37.4987 33.0677 37.7122C33.0677 38.2005 33.2173 38.5717 33.5177 38.8258C33.8176 39.0804 34.2422 39.2074 34.7914 39.2074C35.361 39.2074 35.8082 39.0549 36.1341 38.7498C36.4595 38.4441 36.7211 38.0248 36.9194 37.4906C37.1178 36.957 37.2732 36.3341 37.3852 35.6218C37.4965 34.9102 37.6241 34.1475 37.7662 33.3337C37.7662 33.2322 37.8121 33.0948 37.9037 32.9214C37.9953 32.7491 38.1044 32.5809 38.2314 32.4185C38.359 32.2555 38.4988 32.1157 38.6513 31.9986C38.8039 31.882 38.9413 31.8234 39.0631 31.8234C39.2157 31.8234 39.3479 31.8895 39.4598 32.0218C39.5718 32.154 39.6275 32.3216 39.6275 32.5252C39.6275 32.6981 39.5816 32.8581 39.49 33.0055C39.3989 33.1534 39.287 33.227 39.1548 33.227C39.1345 33.227 39.0353 33.2114 38.8572 33.1812C38.6792 33.1505 38.4733 33.0843 38.2395 32.9828L37.9953 33.2572C38.1073 33.4306 38.2546 33.6005 38.4379 33.7682C38.6206 33.9364 38.7934 34.0199 38.9564 34.0199C39.1292 34.0199 39.2841 33.9665 39.4216 33.8598C39.559 33.7531 39.6756 33.6185 39.7725 33.4555C39.8693 33.2931 39.943 33.1174 39.994 32.9295C40.0445 32.741 40.07 32.571 40.07 32.4185C40.07 32.2457 40.052 32.0775 40.0166 31.9145C39.9807 31.7521 39.925 31.6071 39.849 31.4801C39.7725 31.353 39.6686 31.251 39.5358 31.175C39.4036 31.0984 39.2464 31.0607 39.0631 31.0607C38.8798 31.0607 38.6867 31.1216 38.4831 31.2434C38.2801 31.3658 38.1224 31.4777 38.0104 31.5792V31.5792ZM41.5652 31.1367C41.2294 31.4522 40.9574 31.7469 40.7492 32.0218C40.5404 32.2961 40.436 32.6372 40.436 33.0437C40.436 33.3181 40.505 33.5756 40.6425 33.814C40.7793 34.0529 41.0055 34.173 41.3211 34.173C41.5345 34.173 41.7479 34.0993 41.962 33.9514C42.1754 33.8041 42.3709 33.6185 42.5489 33.3946C42.727 33.1708 42.872 32.9295 42.9839 32.6696C43.0959 32.4104 43.1515 32.1691 43.1515 31.9452C43.1515 31.6807 43.068 31.4545 42.8998 31.2666C42.7322 31.0781 42.4956 30.9842 42.1905 30.9842C42.1394 30.9842 42.0658 30.9917 41.9695 31.0074C41.8726 31.0224 41.8042 31.0352 41.7636 31.0451L41.5652 31.1367ZM42.3129 32.5096C42.2723 32.6116 42.2061 32.7311 42.1145 32.868C42.0229 33.0055 41.8599 33.1099 41.6261 33.1812C41.3008 33.1812 41.1378 33.0084 41.1378 32.6627C41.1378 32.52 41.161 32.3727 41.2068 32.2196C41.2526 32.0676 41.3135 31.9301 41.3895 31.8078C41.4661 31.686 41.5525 31.5868 41.6488 31.5108C41.7456 31.4342 41.85 31.396 41.962 31.396C42.267 31.396 42.4196 31.5995 42.4196 32.0061C42.4196 32.1186 42.4091 32.2045 42.3888 32.266C42.3685 32.3269 42.3482 32.3982 42.3279 32.4794L42.3129 32.5096V32.5096ZM46.9656 30.7249C46.8032 30.7249 46.5793 30.7806 46.2917 30.8925L45.8625 32.0061C45.6995 32.0978 45.5498 32.1592 45.417 32.1894C45.2825 32.2196 45.1705 32.2352 45.0795 32.2352C45.0157 32.2352 44.9165 32.2172 44.779 32.1819C44.6392 32.1459 44.5348 32.1186 44.4635 32.0978L44.5859 30.8009C44.5859 30.8009 44.5633 30.8189 44.5198 30.8542C44.4739 30.8902 44.4026 30.9436 44.3011 31.0149C44.2118 31.0857 44.1201 31.1419 44.0262 31.1825C43.9299 31.2231 43.8742 31.2539 43.8533 31.2742V34.173C44.0668 34.0611 44.2071 33.9161 44.2733 33.738C44.3394 33.5599 44.398 33.339 44.4484 33.0745L44.4792 32.8912C44.5604 32.9115 44.6619 32.9475 44.7842 32.9979C44.906 33.049 45.0128 33.0745 45.1044 33.0745C45.2366 33.0745 45.3561 33.0461 45.4628 32.9904C45.5701 32.9347 45.6641 32.8808 45.7453 32.8303L45.7911 32.7996C46.0556 33.3488 46.3299 33.7125 46.6147 33.8905C46.8995 34.0686 47.2504 34.1573 47.6674 34.1573C48.0949 34.1573 48.4023 34.0431 48.5908 33.814C48.7787 33.5855 48.8727 33.2879 48.8727 32.9214C48.6389 33.1046 48.4406 33.2166 48.2776 33.2572C48.1152 33.2978 47.9168 33.3181 47.6825 33.3181C47.2556 33.3181 46.9505 33.2752 46.7673 33.1887C46.584 33.1023 46.4929 32.9573 46.4929 32.7537C46.4929 32.6116 46.5103 32.4539 46.5463 32.281C46.5817 32.1082 46.6223 31.9301 46.6681 31.7469C46.7139 31.5642 46.7649 31.3838 46.8206 31.2051C46.8769 31.0277 46.925 30.867 46.9656 30.7249Z" fill="#FEFEFE"/>
</svg>
