<svg width="74" height="52" viewBox="0 0 74 52" fill="none" xmlns="http://www.w3.org/2000/svg">
<path fill-rule="evenodd" clip-rule="evenodd" d="M55.0373 25.4878C57.948 22.7461 57.6702 19.5335 55.1339 16.6348C51.3173 12.2748 53.9623 14.3401 52.3198 10.1491C51.2932 7.51617 49.3487 6.57411 46.764 5.89776C44.0586 5.19725 45.665 5.01609 43.6963 3.96533C42.9233 3.54261 41.6914 3.7117 41.5948 3.66339C41.0634 3.3856 40.3991 -0.49134 34.0945 0.0521565C32.4641 0.197089 29.1065 0.728507 28.0799 2.08121C26.7634 3.78416 26.8359 5.00401 24.5411 6.07892C21.7149 7.40747 20.1086 7.96304 19.8066 11.4897C19.6738 12.9391 19.1303 13.3135 18.0675 14.2797C15.35 16.7073 12.9103 18.0358 13.9369 22.2268C14.9273 26.2607 18.9612 26.9733 21.9927 28.8091C28.2369 32.6015 34.6501 33.7489 41.8001 32.0097C45.822 31.0314 50.9067 28.4589 54.2643 26.0433L55.0373 25.4878ZM41.6673 18.9658C40.8097 17.6856 39.445 17.5286 38.0077 17.2387C38.3217 14.8352 38.4304 14.3401 37.7541 12.1298C37.3918 10.9342 39.4329 9.32782 38.0198 9.58145C37.4763 9.69015 37.5005 10.5597 36.9932 10.8979C33.9496 8.08382 32.5848 9.05003 28.7562 8.91718C26.9687 5.1731 29.191 5.52335 28.8528 3.62715C27.6209 3.56676 27.5122 4.65376 27.4397 5.75283C27.3552 7.04514 27.6209 7.81811 27.8625 9.09835C25.6039 9.18289 25.6522 10.0646 27.8383 10.1249C27.1861 13.1323 28.7562 10.3786 30.0606 9.91963C31.7394 9.3399 27.3431 11.5622 28.563 12.8545C29.1427 13.4705 29.3963 12.5284 29.9519 12.0211C31.208 10.8858 32.5244 10.4752 34.1912 10.5477C33.225 10.9945 31.1355 11.5622 31.4616 12.8907C31.6549 13.6275 31.8723 13.3497 32.6815 12.9028C35.0125 11.6226 37.4521 10.439 37.6816 14.3159C37.742 15.2459 37.3918 17.9634 36.5463 18.4344C36.0511 18.7001 29.2755 18.5552 28.3093 18.4344C26.1354 18.1445 22.971 17.6493 23.8889 14.5333C24.4445 12.6009 25.8696 12.3956 25.7972 10.9945C24.1667 11.0066 23.9131 12.8183 22.9468 13.9415C21.1473 12.3956 20.954 11.2723 22.8381 9.47275C23.744 8.60316 25.1933 8.04759 26.3044 7.38331C26.2924 6.67073 26.3165 6.62242 25.4228 6.80359C23.3816 7.21423 20.8091 9.29159 20.8574 11.5139C20.9178 14.9198 21.7995 11.997 19.3839 14.5333C18.4902 15.4754 18.1399 15.8135 17.1616 16.6711C12.8016 20.4514 14.9152 24.7269 19.6376 26.7801C21.3647 27.541 22.041 27.8188 23.7198 28.7608C30.8094 32.7102 40.387 33.0726 47.537 29.0628C49.9526 27.7101 55.2063 24.9805 56.2088 22.4321C57.6943 18.6276 52.1507 14.7145 52.0782 14.3642C51.9333 13.7241 51.9574 12.3835 51.7521 11.4293C50.9671 7.62487 48.3221 6.38087 44.7229 6.21178C43.6722 4.20688 43.0441 4.14649 40.8218 4.1948C38.4546 -1.88027 28.5871 1.7068 28.2973 2.6247C28.1523 3.10781 29.1065 3.18028 29.6741 2.86626C30.9302 2.17783 29.6137 2.74548 30.4471 3.85663C31.3408 3.63923 31.4375 1.7068 33.6597 1.63433C32.6211 2.80587 30.5799 3.67546 31.9689 5.05232C33.2008 3.79624 32.8385 3.32521 35.3023 2.49185C35.7854 2.33484 39.1068 1.77927 36.8603 2.78171C35.2782 3.4943 34.4206 3.65131 34.8554 5.55958C36.1236 4.56921 37.4521 3.40975 39.2396 3.85663C40.7131 4.23104 40.5078 6.67073 41.0151 8.10798C42.3074 7.96304 43.2615 6.92436 45.6891 6.99683C44.5297 7.57656 41.7156 8.03551 41.8605 9.61769C41.9813 10.9342 42.8871 9.52106 43.648 9.11042C45.4597 8.14421 48.4308 7.67318 49.8801 9.4486C46.7399 8.92926 45.206 9.4486 42.4161 10.8858C41.6793 11.2723 41.6793 11.538 41.8847 12.2989C42.718 12.2385 44.276 11.3206 45.5321 11.0066C46.5708 10.753 49.7835 10.2336 50.6168 10.9704C51.2207 11.5139 50.7255 11.3086 49.9767 11.2361C48.4791 11.1032 44.5297 12.2869 44.9886 13.869C45.1698 14.4971 45.3993 14.026 46.0515 13.6033C47.8269 12.4439 49.252 12.4801 51.2811 12.8183C51.4743 17.1542 49.0105 19.4489 44.8075 19.8958C43.4306 20.0407 43.8412 19.6422 42.9354 19.4852C42.0296 19.3281 42.2228 19.775 41.6673 18.9658ZM33.3337 19.5335C31.0389 21.2364 29.505 23.4225 31.1114 26.2124C31.4858 26.8767 31.2563 26.6352 32.2346 26.6835C35.4352 26.8405 42.1021 27.0699 44.9524 25.8743C45.0852 24.2317 44.578 20.8258 42.3678 20.9224C41.1721 20.9707 39.5054 21.8282 38.5995 22.6133C37.3072 20.077 40.7614 20.3548 40.9547 19.5697C41.0875 19.0624 38.7203 19.3765 38.3217 19.5093C36.812 20.0166 36.1236 21.0553 35.0245 22.0577C33.5027 20.548 35.254 20.7292 35.7492 19.2315C34.7467 19.7026 34.8313 20.1615 33.9496 20.391C33.8651 20.089 33.8409 19.5818 33.6114 19.3885L33.3337 19.5335ZM50.0854 26.6231C52.7063 25.3308 57.0663 22.5046 55.2305 19.0141C54.6025 17.8064 54.9044 19.0383 54.8561 20.0287C54.6628 24.0022 49.2037 25.4998 45.9911 26.3091C39.3363 27.9879 24.6498 28.1207 19.082 23.8935C17.1858 22.4442 18.2245 21.176 19.3115 19.6301C18.6109 18.4102 18.7921 19.0504 18.2849 17.5407C18.0554 16.8401 18.0675 16.9247 17.4153 17.4682C14.2026 20.1494 15.8572 23.4829 18.8042 25.3791C25.5919 29.7391 40.2662 30.0773 47.839 27.5168C48.624 27.2511 49.3245 26.9612 50.0854 26.6231ZM29.7103 25.983C30.2901 24.5578 28.8408 24.6303 30.3505 21.6108C31.4133 19.461 27.8141 18.3861 25.5194 20.5238C25.0725 20.9345 24.6981 21.5142 24.5652 20.4635C24.4928 19.8958 25.8817 18.845 24.0338 19.6422C22.8865 20.1494 21.8236 21.9369 21.5941 20.2702C21.4854 19.4852 22.6328 19.1591 22.343 18.7726C22.3309 18.7726 19.867 20.2461 19.6979 20.391C18.8767 21.1277 18.7559 21.6833 18.6593 22.7341C22.2584 24.739 24.5411 25.7776 28.7441 26.2849C29.4205 26.3694 29.3359 26.4419 29.7103 25.983ZM46.3534 24.3525C48.6602 24.2196 53.757 23.2896 54.216 20.4876C54.4817 18.845 53.2618 16.0551 51.8125 15.258C50.9429 17.758 50.484 18.6639 47.8631 19.7267C46.5225 20.2702 45.4355 20.2098 44.1432 20.6325C44.0224 21.3814 44.8799 21.949 45.2906 22.879C45.7737 23.9418 45.363 24.0022 46.3534 24.3525ZM44.0103 29.8116C47.8993 28.4347 46.5225 28.7125 42.9596 29.2319C36.3048 30.2222 31.5341 29.57 25 28.64C27.6692 30.1739 33.6839 31.2005 36.7999 31.0194C39.0706 30.8865 41.8484 30.5 44.0103 29.8116ZM22.2584 18.0238C22.8261 16.2363 23.4299 17.7218 23.0555 15.6082C22.8744 14.5937 22.9831 14.7265 22.1014 14.014C21.57 13.5792 21.256 14.014 20.6521 14.5454C19.5409 15.5358 18.4902 17.0938 19.5289 18.531C20.3984 19.7388 20.3018 18.5431 21.8961 18.2774L22.1497 18.217L22.2584 18.0238ZM43.8775 6.04269C43.2736 4.88323 42.4161 4.71414 41.1962 4.87115C41.0151 5.70451 41.0754 6.42918 41.5102 7.17799C42.2228 6.94852 43.2494 6.69489 43.8654 6.33255L43.8775 6.04269Z" fill="black"/>
<path d="M5.13302 47.3846H3.43006V49.0996C3.43006 49.305 3.43006 49.5224 3.26098 49.7398C3.09189 49.9572 2.8141 50.0055 2.60878 50.0055C2.41554 50.0055 2.13775 49.9692 1.90827 49.7518C1.69088 49.5103 1.70295 49.2687 1.70295 49.0151V43.1574C1.70295 42.9038 1.71503 42.6018 1.95659 42.3965C2.07736 42.2999 2.27061 42.1912 2.58463 42.1912C2.8141 42.1912 3.0315 42.2516 3.18851 42.4328C3.39383 42.6502 3.39383 42.8796 3.39383 43.1091V44.4014H5.09678V43.254C5.09678 42.7105 5.01224 41.9376 4.33589 41.3458C3.93733 40.9834 3.34552 40.7298 2.56047 40.7298C1.90827 40.7298 1.26816 40.8627 0.700506 41.382C0.132855 41.9013 0 42.4448 0 43.097V48.8218C0 49.4982 0.0603884 50.1987 0.712584 50.7905C1.21985 51.2615 1.95659 51.4669 2.5967 51.4669C3.38175 51.4669 4.07018 51.2012 4.50498 50.7905C5.0364 50.2832 5.13302 49.7156 5.13302 49.1359V47.3846ZM11.498 51.3219L9.57761 40.8747H7.48817L5.55574 51.3219H7.31908L7.62102 49.3895H9.44475L9.73462 51.3219H11.498ZM7.81426 47.9281L8.51477 43.7734H8.53893L9.23943 47.9281H7.81426ZM16.5947 51.3219L17.8146 43.4594H17.8991L17.8025 44.8483V51.3099H19.5055V40.8747H16.8242L15.8218 47.6141H15.7614L14.7589 40.8747H12.0777V51.3099H13.7806V44.8483L13.684 43.4594H13.7686L14.9884 51.3219H16.5947ZM20.5441 51.3219H23.6843C24.3849 51.3219 24.8076 51.02 25.0612 50.7543C25.4718 50.3074 25.653 49.5827 25.653 48.9789V47.6624C25.653 47.1431 25.5926 46.5271 25.2544 45.9594C24.711 45.0174 23.793 44.9087 23.2375 44.9087H22.2471V42.3361H25.2424V40.8747H20.5441V51.3099V51.3219ZM22.2471 49.8485V46.3701H22.8993C23.3462 46.3701 23.636 46.5875 23.7689 46.7807C23.8897 46.9619 23.9501 47.2397 23.9501 47.7107V48.7252C23.9501 49.305 23.8293 49.5465 23.7206 49.6552C23.5153 49.8726 23.2012 49.8485 22.9355 49.8485H22.2471ZM26.1603 51.3219C26.9574 51.3461 27.1506 51.3461 27.3077 51.3461C27.7666 51.3461 28.2135 51.2978 28.6845 50.9838C29.4092 50.5127 29.6386 49.8243 29.7353 49.3653L31.4624 40.8747H29.699L28.914 46.0077L27.7908 40.8747H26.0395L28.0806 48.1697C28.1893 48.5441 28.3584 48.9909 27.9478 49.4861C27.6821 49.8001 27.3197 49.8485 27.0299 49.8485H26.1603V51.3099V51.3219ZM37.1389 47.3846H35.448V49.0996C35.448 49.305 35.448 49.5224 35.2789 49.7398C35.0978 49.9572 34.8321 50.0055 34.6267 50.0055C34.4335 50.0055 34.1436 49.9692 33.9262 49.7518C33.6968 49.5103 33.7209 49.2687 33.7209 49.0151V43.1574C33.7209 42.9038 33.733 42.6018 33.9745 42.3965C34.0832 42.2999 34.2765 42.1912 34.5905 42.1912C34.8321 42.1912 35.0374 42.2516 35.2065 42.4328C35.4118 42.6502 35.4118 42.8796 35.4118 43.1091V44.4014H37.1147V43.254C37.1147 42.7105 37.0302 41.9376 36.3538 41.3458C35.9553 40.9834 35.3514 40.7298 34.5784 40.7298C33.9262 40.7298 33.2861 40.8627 32.7185 41.382C32.1508 41.9013 32.018 42.4448 32.018 43.097V48.8218C32.018 49.4982 32.0783 50.1987 32.7305 50.7905C33.2378 51.2615 33.9745 51.4669 34.6147 51.4669C35.3997 51.4669 36.0881 51.2012 36.5229 50.7905C37.0543 50.2832 37.1389 49.7156 37.1389 49.1359V47.3846ZM43.5159 51.3219L41.5835 40.8747H39.5061L37.5737 51.3219H39.337L39.639 49.3895H41.4506L41.7526 51.3219H43.5159ZM39.8322 47.9281L40.5327 43.7734H40.5569L41.2574 47.9281H39.8322Z" fill="black"/>
<path d="M57.9127 51.322H54.7966L50.7989 45.4522V51.322H47.707V40.6332H50.7868L54.8208 46.5513V40.6332H57.9127V51.322ZM62.2848 42.1308C63.4443 42.1308 64.3259 42.4328 64.9298 43.0487C65.5458 43.6647 65.8477 44.4377 65.8477 45.3435C65.8477 46.2493 65.5458 47.0223 64.9419 47.6503C64.338 48.2905 63.4563 48.6045 62.2848 48.6045C61.1616 48.6045 60.292 48.2905 59.676 47.6624C59.0601 47.0344 58.7581 46.2735 58.7581 45.3797C58.7581 44.4618 59.0601 43.6889 59.6881 43.0608C60.3041 42.4449 61.1737 42.1308 62.2848 42.1308ZM62.309 46.8774C62.6592 46.8774 62.9128 46.7566 63.0819 46.515C63.251 46.2735 63.3356 45.887 63.3356 45.3556C63.3356 44.8242 63.251 44.4377 63.094 44.2082C62.937 43.9787 62.6834 43.8579 62.3452 43.8579C61.9829 43.8579 61.7172 43.9787 61.5481 44.2082C61.379 44.4377 61.3065 44.8362 61.3065 45.3797C61.3065 46.3701 61.6447 46.8774 62.309 46.8774ZM65.582 50.9838H59.2654V49.2325H65.582V50.9838ZM74.0002 40.4641V51.322H70.9928V44.2082C70.5097 44.5826 70.0387 44.8725 69.5918 45.1019C69.1329 45.3314 68.5652 45.5488 67.8768 45.7541V43.3386C68.8913 43.0125 69.6763 42.6139 70.2319 42.155C70.7875 41.696 71.2223 41.1284 71.5484 40.4641H74.0002Z" fill="black"/>
</svg>
