<svg width="16" height="18" viewBox="0 0 16 18" fill="none" xmlns="http://www.w3.org/2000/svg">
<path d="M15.425 8.2666V4.60827C15.425 3.92493 14.9083 3.14993 14.2666 2.8916L9.62495 0.991602C8.58328 0.566602 7.40828 0.566602 6.36662 0.991602L1.72495 2.8916C1.09162 3.14993 0.574951 3.92493 0.574951 4.60827V8.2666C0.574951 12.3416 3.53328 16.1583 7.57495 17.2749C7.84995 17.3499 8.14995 17.3499 8.42495 17.2749C12.4666 16.1583 15.425 12.3416 15.425 8.2666ZM8.62495 9.72493V11.9166C8.62495 12.2583 8.34162 12.5416 7.99995 12.5416C7.65828 12.5416 7.37495 12.2583 7.37495 11.9166V9.72493C6.53328 9.45827 5.91662 8.67494 5.91662 7.74994C5.91662 6.59994 6.84995 5.6666 7.99995 5.6666C9.14995 5.6666 10.0833 6.59994 10.0833 7.74994C10.0833 8.68327 9.46662 9.45827 8.62495 9.72493Z" fill="black"/>
</svg>
